<?xml version="1.0" encoding="utf-8"?>
<!-- Generator: Adobe Illustrator 16.0.0, SVG Export Plug-In . SVG Version: 6.00 Build 0)  -->
<!DOCTYPE svg PUBLIC "-//W3C//DTD SVG 1.1//EN" "http://www.w3.org/Graphics/SVG/1.1/DTD/svg11.dtd">
<svg version="1.1" id="Layer_1" xmlns="http://www.w3.org/2000/svg" xmlns:xlink="http://www.w3.org/1999/xlink" x="0px" y="0px"
	viewBox="0 0 20 15" enable-background="new 0 0 20 15" xml:space="preserve">
<g>
	<g>
		<path fill="#999899" d="M18.607,1.167c-0.407-0.438-1.065-0.438-1.472,0l-9.277,9.984L2.771,5.674
			c-0.435-0.467-1.138-0.467-1.572,0c-0.434,0.467-0.434,1.224,0,1.69L6.8,13.393c0.048,0.103,0.099,0.205,0.179,0.29
			c0.08,0.086,0.174,0.141,0.27,0.192l0.045,0.049c0.434,0.468,1.138,0.468,1.571,0c0.256-0.275,0.343-0.648,0.297-1.006
			l9.446-10.166C19.014,2.314,19.014,1.605,18.607,1.167z"/>
	</g>
	<g>
		<path fill="none" stroke="#999899" stroke-miterlimit="10" d="M18.607,1.167c-0.407-0.438-1.065-0.438-1.472,0l-9.277,9.984
			L2.771,5.674c-0.435-0.467-1.138-0.467-1.572,0c-0.434,0.467-0.434,1.224,0,1.69L6.8,13.393c0.048,0.103,0.099,0.205,0.179,0.29
			c0.08,0.086,0.174,0.141,0.27,0.192l0.045,0.049c0.434,0.468,1.138,0.468,1.571,0c0.256-0.275,0.343-0.648,0.297-1.006
			l9.446-10.166C19.014,2.314,19.014,1.605,18.607,1.167z"/>
	</g>
</g>
</svg>
