<?xml version="1.0" encoding="utf-8"?>
<!-- Generator: Adobe Illustrator 16.0.0, SVG Export Plug-In . SVG Version: 6.00 Build 0)  -->
<!DOCTYPE svg PUBLIC "-//W3C//DTD SVG 1.1//EN" "http://www.w3.org/Graphics/SVG/1.1/DTD/svg11.dtd">
<svg version="1.1" xmlns="http://www.w3.org/2000/svg" xmlns:xlink="http://www.w3.org/1999/xlink" x="0px" y="0px"
	viewBox="0 0 66 66" enable-background="new 0 0 66 66" xml:space="preserve">
<g id="Layer_1">
	<g>
		<g>
			<path fill="#FFFFFF" d="M31.5,30h-11c-9.941,0-18,8.059-18,18v9h47v-9C49.5,38.059,41.441,30,31.5,30z"/>
		</g>
		<g>
			<path fill="none" stroke="#646464" stroke-miterlimit="10" d="M31.5,30h-11c-9.941,0-18,8.059-18,18v9h47v-9
				C49.5,38.059,41.441,30,31.5,30z"/>
		</g>
	</g>
</g>
<g id="Layer_2">
	<path fill="#FFFFFF" stroke="#646464" stroke-miterlimit="10" d="M26,1.5h2c6.352,0,11.5,5.149,11.5,11.5v2
		c0,6.352-5.148,11.5-11.5,11.5h-2c-6.351,0-11.5-5.148-11.5-11.5v-2C14.5,6.649,19.649,1.5,26,1.5z"/>
</g>
<g id="Layer_3">
	<path fill="#FFFFFF" stroke="#FFFFFF" stroke-miterlimit="10" d="M47.922,29.5C57.906,29.5,66,37.671,66,47.75S57.906,66,47.922,66
		s-18.078-8.171-18.078-18.25S37.938,29.5,47.922,29.5z"/>
</g>
<g id="Layer_4">
	<path fill="#FFFFFF" stroke="#EC942F" stroke-miterlimit="10" d="M47.641,32.75C56.123,32.75,63,39.689,63,48.25
		s-6.877,15.5-15.359,15.5s-15.359-6.939-15.359-15.5S39.158,32.75,47.641,32.75z"/>
</g>
<g id="Layer_5">
	<g>
		<g>
			<polygon fill-rule="evenodd" clip-rule="evenodd" fill="#EC932F" points="52.91,45.116 51.555,43.762 47.922,47.395 
				44.287,43.762 42.932,45.116 46.566,48.75 42.932,52.384 44.287,53.738 47.922,50.104 51.555,53.738 52.91,52.384 49.276,48.75 
							"/>
		</g>
		<g>
			<polygon fill="none" stroke="#EC942F" stroke-miterlimit="10" points="52.91,45.116 51.555,43.762 47.922,47.395 44.287,43.762 
				42.932,45.116 46.566,48.75 42.932,52.384 44.287,53.738 47.922,50.104 51.555,53.738 52.91,52.384 49.276,48.75 			"/>
		</g>
	</g>
</g>
</svg>
