<?xml version="1.0" encoding="utf-8"?>
<!-- Generator: Adobe Illustrator 16.0.0, SVG Export Plug-In . SVG Version: 6.00 Build 0)  -->
<!DOCTYPE svg PUBLIC "-//W3C//DTD SVG 1.1//EN" "http://www.w3.org/Graphics/SVG/1.1/DTD/svg11.dtd">
<svg version="1.1" xmlns="http://www.w3.org/2000/svg" xmlns:xlink="http://www.w3.org/1999/xlink" x="0px" y="0px"
	 viewBox="0 0 66 66" enable-background="new 0 0 66 66" xml:space="preserve">
<g id="Layer_1">
	<g>
		<g>
			<path fill="#FFFFFF" d="M32.5,30h-11c-9.941,0-18,8.059-18,18v9h47v-9C50.5,38.059,42.441,30,32.5,30z"/>
		</g>
		<g>
			<path fill="none" stroke="#424253" stroke-miterlimit="10" d="M32.5,30h-11c-9.941,0-18,8.059-18,18v9h47v-9
				C50.5,38.059,42.441,30,32.5,30z"/>
		</g>
	</g>
</g>
<g id="Layer_2">
	<path fill="#FFFFFF" stroke="#424253" stroke-miterlimit="10" d="M26,2h2c6.352,0,11.5,5.149,11.5,11.5v2
		C39.5,21.852,34.352,27,28,27h-2c-6.351,0-11.5-5.148-11.5-11.5v-2C14.5,7.149,19.649,2,26,2z"/>
</g>
<g id="Layer_3">
	<path fill="#FFFFFF" stroke="#FFFFFF" stroke-miterlimit="10" d="M47.922,29.5C57.906,29.5,66,37.671,66,47.75S57.906,66,47.922,66
		s-18.078-8.171-18.078-18.25S37.938,29.5,47.922,29.5z"/>
</g>
<g id="Layer_4">
	<path fill="#FFFFFF" stroke="#E98417" stroke-miterlimit="10" d="M48.422,32.75c8.482,0,15.359,6.939,15.359,15.5
		s-6.877,15.5-15.359,15.5s-15.359-6.939-15.359-15.5S39.939,32.75,48.422,32.75z"/>
</g>
<g id="Layer_5">
	<path fill="#E98417" stroke="#E98417" stroke-miterlimit="10" d="M48.855,51.5l7.634-7.634l-1.355-1.354L47.5,50.145l-3.634-3.633
		l-1.355,1.354l3.634,3.634l1.355,1.355L48.855,51.5z"/>
</g>
</svg>
