<?xml version="1.0" encoding="utf-8"?>
<!-- Generator: Adobe Illustrator 16.0.0, SVG Export Plug-In . SVG Version: 6.00 Build 0)  -->
<!DOCTYPE svg PUBLIC "-//W3C//DTD SVG 1.1//EN" "http://www.w3.org/Graphics/SVG/1.1/DTD/svg11.dtd">
<svg version="1.1" xmlns="http://www.w3.org/2000/svg" xmlns:xlink="http://www.w3.org/1999/xlink" x="0px" y="0px"
	 viewBox="0 0 42 29" enable-background="new 0 0 42 29" xml:space="preserve">
<g id="Layer_1">
	<path fill="#1D1D25" stroke="#1D1D25" stroke-miterlimit="10" d="M7,0.625h28c3.314,0,6,2.687,6,6v15.75c0,3.314-2.686,6-6,6H7
		c-3.313,0-6-2.686-6-6V6.625C1,3.312,3.687,0.625,7,0.625z"/>
</g>
<g id="Layer_2">
	<path fill="#E98113" stroke="#E98113" stroke-miterlimit="10" d="M17.143,19.356c0-0.452,0-8.39,0-8.702
		c0-0.404,0.395-0.705,0.786-0.469c0.313,0.189,6.566,4.016,7.099,4.343c0.352,0.215,0.346,0.728,0,0.942
		c-0.384,0.24-6.661,4.085-7.115,4.353C17.579,20.019,17.143,19.803,17.143,19.356z"/>
</g>
</svg>
