<?xml version="1.0" encoding="utf-8"?>
<!-- Generator: Adobe Illustrator 16.0.0, SVG Export Plug-In . SVG Version: 6.00 Build 0)  -->
<!DOCTYPE svg PUBLIC "-//W3C//DTD SVG 1.1//EN" "http://www.w3.org/Graphics/SVG/1.1/DTD/svg11.dtd">
<svg version="1.1" id="Layer_1" xmlns="http://www.w3.org/2000/svg" xmlns:xlink="http://www.w3.org/1999/xlink" x="0px" y="0px"
	viewBox="0 0 42 30" enable-background="new 0 0 42 30" xml:space="preserve">
<g>
	<g>
		<path fill="#FFFFFF" d="M39.803,14.009h-35.6L15.499,2.726c0.398-0.398,0.398-1.042,0-1.439c-0.398-0.398-1.043-0.398-1.441,0
			L1.086,14.243c-0.207,0.207-0.301,0.479-0.292,0.75c-0.008,0.271,0.085,0.543,0.292,0.75l12.971,12.957
			c0.398,0.398,1.043,0.398,1.441,0s0.398-1.043,0-1.439L4.209,15.983h35.593c0.553,0,1-0.441,1-0.987
			C40.803,14.451,40.355,14.009,39.803,14.009z"/>
	</g>
	<g>
		<path fill="none" stroke="#FFFFFF" stroke-miterlimit="10" d="M39.803,14.009h-35.6L15.499,2.726c0.398-0.398,0.398-1.042,0-1.439
			c-0.398-0.398-1.043-0.398-1.441,0L1.086,14.243c-0.207,0.207-0.301,0.479-0.292,0.75c-0.008,0.271,0.085,0.543,0.292,0.75
			l12.971,12.957c0.398,0.398,1.043,0.398,1.441,0s0.398-1.043,0-1.439L4.209,15.983h35.593c0.553,0,1-0.441,1-0.987
			C40.803,14.451,40.355,14.009,39.803,14.009z"/>
	</g>
</g>
</svg>
