<?xml version="1.0" encoding="utf-8"?>
<!-- Generator: Adobe Illustrator 16.0.0, SVG Export Plug-In . SVG Version: 6.00 Build 0)  -->
<!DOCTYPE svg PUBLIC "-//W3C//DTD SVG 1.1//EN" "http://www.w3.org/Graphics/SVG/1.1/DTD/svg11.dtd">
<svg version="1.1" id="Layer_1" xmlns="http://www.w3.org/2000/svg" xmlns:xlink="http://www.w3.org/1999/xlink" x="0px" y="0px"
	viewBox="0 0 21 22" enable-background="new 0 0 21 22" xml:space="preserve">
<g>
	<g>
		<path fill="#fff" d="M3.5,17.5c0.553,0,1-0.447,1-1v-5.417H4.492c0-3.318,2.689-6.008,6.008-6.008s6.008,2.689,6.008,6.008
			H16.5V16.5c0,0.553,0.447,1,1,1s1-0.447,1-1v-6c0-0.089-0.029-0.169-0.051-0.251C18.093,6.53,15.187,3.563,11.5,3.102V1.5
			c0-0.552-0.447-1-1-1s-1,0.448-1,1v1.602C5.813,3.563,2.908,6.53,2.551,10.249C2.529,10.331,2.5,10.411,2.5,10.5v6
			C2.5,17.053,2.947,17.5,3.5,17.5z M19.5,19.5h-18c-0.553,0-1,0.447-1,1s0.447,1,1,1h18c0.553,0,1-0.447,1-1S20.053,19.5,19.5,19.5
			z"/>
	</g>
	<g>
		<path fill="none" stroke="#fff" stroke-miterlimit="10" d="M3.5,17.5c0.553,0,1-0.447,1-1v-5.417H4.492
			c0-3.318,2.689-6.008,6.008-6.008s6.008,2.689,6.008,6.008H16.5V16.5c0,0.553,0.447,1,1,1s1-0.447,1-1v-6
			c0-0.089-0.029-0.169-0.051-0.251C18.093,6.53,15.187,3.563,11.5,3.102V1.5c0-0.552-0.447-1-1-1s-1,0.448-1,1v1.602
			C5.813,3.563,2.908,6.53,2.551,10.249C2.529,10.331,2.5,10.411,2.5,10.5v6C2.5,17.053,2.947,17.5,3.5,17.5z M19.5,19.5h-18
			c-0.553,0-1,0.447-1,1s0.447,1,1,1h18c0.553,0,1-0.447,1-1S20.053,19.5,19.5,19.5z"/>
	</g>
</g>
</svg>
