<?xml version="1.0" encoding="utf-8"?>
<!-- Generator: Adobe Illustrator 16.0.0, SVG Export Plug-In . SVG Version: 6.00 Build 0)  -->
<!DOCTYPE svg PUBLIC "-//W3C//DTD SVG 1.1//EN" "http://www.w3.org/Graphics/SVG/1.1/DTD/svg11.dtd">
<svg version="1.1" id="Layer_1" xmlns="http://www.w3.org/2000/svg" xmlns:xlink="http://www.w3.org/1999/xlink" x="0px" y="0px"
	viewBox="0 0 21 21" enable-background="new 0 0 21 21" xml:space="preserve">
<path fill="#FFFFFF" stroke="#FFFFFF" stroke-miterlimit="10" d="M11.868,10.5c0,0.735-0.6,1.336-1.332,1.336
	S9.204,11.235,9.204,10.5c0-0.734,0.6-1.336,1.332-1.336S11.868,9.766,11.868,10.5z M5.875,9.164c-0.732,0-1.332,0.602-1.332,1.336
	c0,0.735,0.6,1.336,1.332,1.336s1.332-0.601,1.332-1.336C7.207,9.766,6.607,9.164,5.875,9.164z M15.198,9.164
	c-0.732,0-1.332,0.602-1.332,1.336c0,0.735,0.6,1.336,1.332,1.336s1.332-0.601,1.332-1.336C16.53,9.766,15.931,9.164,15.198,9.164z
	 M20.525,10.5c0,5.512-4.462,9.988-9.956,9.988h-8.69c-0.732,0-1.332-0.602-1.332-1.336V10.5c0-5.512,4.462-9.988,9.956-9.988
	C16.224,0.512,20.525,5.122,20.525,10.5z M18.648,10.5c0-4.383-3.502-8.107-8.144-8.107c-4.462,0-8.081,3.631-8.081,8.107v8.107
	h8.144C15.029,18.607,18.648,14.977,18.648,10.5z"/>
</svg>
