<?xml version="1.0" encoding="utf-8"?>
<!-- Generator: Adobe Illustrator 16.0.0, SVG Export Plug-In . SVG Version: 6.00 Build 0)  -->
<!DOCTYPE svg PUBLIC "-//W3C//DTD SVG 1.1//EN" "http://www.w3.org/Graphics/SVG/1.1/DTD/svg11.dtd">
<svg version="1.1" id="Layer_1" xmlns="http://www.w3.org/2000/svg" xmlns:xlink="http://www.w3.org/1999/xlink" x="0px" y="0px"
	viewBox="0 0 27 27" enable-background="new 0 0 27 27" xml:space="preserve">
<g>
	<g>
		<path fill="#ACACC1" d="M25.922,11.927c-0.002-0.154,0-0.308-0.001-0.462c0.022-0.621-0.394-1.096-0.97-1.239
			c-0.072-0.036-0.151-0.06-0.239-0.06c-0.465,0.002-0.928,0.001-1.391,0c0.003,0.001,0.007,0.002,0.01,0.002
			c-0.084-0.008-0.17-0.009-0.261-0.017c-0.028-0.001-0.056-0.005-0.084-0.008c-0.005-0.001-0.01-0.002-0.014-0.003
			c-0.08-0.015-0.157-0.032-0.236-0.051c-0.065-0.018-0.13-0.035-0.191-0.058c-0.04-0.013-0.077-0.026-0.114-0.041
			c-0.005-0.002-0.005-0.001-0.009-0.003c-0.124-0.036-0.258-0.129-0.363-0.193c-0.021-0.013-0.125-0.102-0.159-0.107
			c-0.008-0.006-0.015-0.012-0.022-0.017c-0.021-0.018-0.043-0.034-0.063-0.054c-0.115-0.099-0.222-0.209-0.32-0.324
			c-0.004-0.005-0.011-0.011-0.017-0.017c-0.017-0.017-0.034-0.048-0.046-0.063c-0.039-0.058-0.078-0.12-0.116-0.179
			c-0.029-0.051-0.059-0.102-0.084-0.152c-0.019-0.037-0.037-0.075-0.058-0.115c-0.003-0.006-0.008-0.015-0.013-0.023
			c-0.061-0.115-0.092-0.265-0.122-0.391c-0.016-0.065-0.029-0.135-0.041-0.199c-0.001-0.006-0.009-0.076-0.011-0.08
			c-0.002-0.027-0.004-0.055-0.005-0.061c-0.01-0.134-0.008-0.271,0.003-0.403c0.003-0.03,0.006-0.058,0.01-0.087
			c0.001-0.005,0-0.002,0.002-0.01c0.016-0.08,0.028-0.158,0.049-0.235c0.018-0.065,0.034-0.13,0.056-0.194
			c0.009-0.024,0.016-0.051,0.027-0.077c0.005-0.013,0.008-0.024,0.014-0.038c0.002-0.004,0.001-0.002,0.002-0.005
			c0.03-0.046,0.051-0.117,0.071-0.16c0.026-0.054,0.058-0.107,0.086-0.16c0.047-0.085,0.099-0.17,0.146-0.256
			c0.163-0.282,0.325-0.567,0.489-0.849c0.315-0.547,0.266-1.253-0.251-1.667c-0.144-0.114-0.307-0.201-0.467-0.293
			c-0.256-0.146-0.511-0.297-0.768-0.444c-0.641-0.371-1.28-0.739-1.921-1.11c-0.194-0.112-0.388-0.223-0.582-0.334
			c-0.412-0.238-0.905-0.28-1.327-0.036c-0.342,0.197-0.507,0.545-0.697,0.871c-0.156,0.272-0.306,0.546-0.468,0.814
			c-0.041,0.069-0.087,0.135-0.132,0.203c-0.007,0.01-0.005,0.008-0.009,0.014c-0.003,0.002-0.001-0.001-0.004,0.003
			c-0.026,0.028-0.052,0.062-0.076,0.092c-0.053,0.06-0.107,0.117-0.166,0.173c-0.035,0.033-0.07,0.067-0.105,0.096
			c-0.011,0.009-0.042,0.034-0.061,0.05c-0.116,0.086-0.239,0.165-0.368,0.233c-0.055,0.029-0.112,0.056-0.169,0.083
			c-0.039,0.014-0.075,0.029-0.114,0.042c-0.12,0.04-0.239,0.073-0.362,0.096c-0.03,0.004-0.063,0.01-0.091,0.017
			c-0.01,0.002-0.003,0.003-0.01,0.005c-0.052,0.017-0.157,0.011-0.193,0.013c-0.123,0.006-0.245,0.002-0.365-0.01
			c-0.023-0.002-0.047-0.004-0.071-0.007c-0.003,0,0,0-0.004-0.001c-0.072-0.013-0.143-0.028-0.214-0.045
			c-0.117-0.029-0.232-0.066-0.347-0.107c-0.021-0.008-0.028-0.01-0.032-0.011c-0.016-0.008-0.033-0.018-0.038-0.02
			c-0.065-0.03-0.131-0.063-0.194-0.101c-0.054-0.031-0.106-0.062-0.155-0.095c-0.021-0.014-0.042-0.028-0.063-0.042
			C12.103,4.015,12.092,4.008,12.082,4c-0.05-0.036-0.04-0.029,0.026,0.024c-0.038-0.004-0.115-0.093-0.143-0.119
			c-0.052-0.044-0.103-0.093-0.149-0.14c-0.045-0.045-0.088-0.092-0.129-0.14c-0.018-0.02-0.034-0.04-0.051-0.061
			c-0.063-0.092-0.124-0.182-0.182-0.276c-0.054-0.093-0.105-0.183-0.158-0.274c-0.163-0.281-0.324-0.567-0.49-0.85
			C10.45,1.562,9.697,1.339,9.076,1.663C8.683,1.867,8.304,2.108,7.919,2.331C7.29,2.693,6.662,3.056,6.031,3.42
			c-0.18,0.104-0.359,0.207-0.539,0.311C5.013,3.999,4.761,4.497,4.843,5.048C4.893,5.381,5.12,5.69,5.285,5.977
			C5.43,6.227,5.582,6.475,5.717,6.73c0.03,0.057,0.058,0.116,0.085,0.175C5.81,6.921,5.811,6.923,5.813,6.929
			C5.82,6.951,5.826,6.974,5.828,6.98C5.874,7.109,5.91,7.244,5.936,7.378c0.004,0.023,0.009,0.05,0.013,0.073
			c0.001,0.012,0.004,0.023,0.005,0.036c0.009,0.06,0.008,0.047-0.003-0.034c0.024,0.031,0.012,0.145,0.016,0.185
			c0.007,0.129,0.006,0.256-0.004,0.384C5.96,8.053,5.955,8.083,5.953,8.114c0,0.003,0,0-0.001,0.004
			C5.94,8.177,5.931,8.238,5.917,8.298C5.889,8.424,5.849,8.544,5.808,8.665c-0.002,0.006,0.001,0.001,0,0.006
			C5.799,8.693,5.785,8.722,5.779,8.733C5.754,8.79,5.728,8.844,5.696,8.897C5.674,8.937,5.533,9.225,5.49,9.224
			c0.016-0.019,0.03-0.037,0.042-0.057c-0.016,0.019-0.029,0.039-0.047,0.06c-0.019,0.023-0.04,0.049-0.06,0.07
			C5.385,9.343,5.344,9.389,5.299,9.435S5.21,9.521,5.163,9.564C5.14,9.585,5.115,9.605,5.092,9.625
			c-0.005,0.004-0.01,0.008-0.015,0.012c0.002-0.003,0.012-0.008,0.012-0.011c-0.015,0.014-0.03,0.025-0.046,0.037
			C5.005,9.692,4.951,9.724,4.93,9.738C4.871,9.775,4.814,9.812,4.752,9.844c-0.074,0.04-0.149,0.077-0.226,0.114
			C4.509,9.966,4.511,9.966,4.504,9.97C4.496,9.973,4.499,9.971,4.482,9.977c-0.045,0.017-0.091,0.033-0.14,0.049
			c-0.146,0.044-0.295,0.077-0.446,0.098c-0.026,0.002-0.063,0.005-0.071,0.005l-0.094,0.006c-0.07,0.002-0.139,0-0.207,0
			c-0.116-0.001-0.229,0-0.347-0.001c-0.28,0-0.562,0.001-0.845,0c-0.356-0.001-0.685,0.107-0.946,0.355
			c-0.242,0.23-0.369,0.56-0.382,0.891c-0.014,0.464,0.001,0.931,0,1.395c0,0.728,0.001,1.453,0.001,2.181
			c0.001,0.187,0,0.376,0,0.56c0,0.611,0.393,1.185,1.014,1.298c0.297,0.056,0.617,0.026,0.918,0.026
			c0.285,0.001,0.574-0.014,0.857,0c0.063,0.004,0.128,0.01,0.191,0.017c0.004,0.001,0.002,0.001,0.007,0.002
			c0.033,0.007,0.064,0.011,0.098,0.019c0.139,0.026,0.273,0.064,0.408,0.113c0.013,0.006,0.024,0.009,0.037,0.014
			c0.005,0.002,0.002,0.001,0.007,0.002c0.019,0.008,0.04,0.016,0.048,0.02c0.062,0.028,0.121,0.059,0.181,0.089
			c0.061,0.033,0.119,0.067,0.176,0.103c0.035,0.021,0.068,0.045,0.101,0.068c0.017,0.012,0.033,0.023,0.05,0.036
			c0.1,0.062,0.198,0.174,0.271,0.251c0.048,0.05,0.093,0.104,0.139,0.156c0.004,0.005,0.002,0.002,0.005,0.005
			c0.004,0.006,0.001,0.003,0.007,0.011c0.023,0.035,0.05,0.068,0.073,0.104c0.071,0.107,0.135,0.223,0.192,0.338
			c0.014,0.031,0.034,0.066,0.045,0.1c0.026,0.077,0.056,0.155,0.077,0.231c0.02,0.066,0.035,0.132,0.049,0.202
			c0.008,0.04,0.016,0.081,0.021,0.12c0.001,0.006,0.002,0.014,0.004,0.021c0.021,0.131,0.016,0.275,0.011,0.404
			c-0.004,0.063-0.009,0.129-0.015,0.194c-0.001,0.003,0-0.002-0.002,0.006c-0.007,0.033-0.01,0.067-0.017,0.101
			c-0.028,0.146-0.066,0.287-0.118,0.428c-0.001,0.004-0.011,0.03-0.018,0.051c-0.007,0.019-0.015,0.038-0.016,0.04
			c-0.027,0.061-0.064,0.118-0.09,0.181c-0.007,0.018-0.007,0.021-0.008,0.026c-0.017,0.022-0.037,0.045-0.05,0.065
			c-0.007,0.01-0.011,0.02-0.019,0.029c-0.07,0.119-0.137,0.238-0.205,0.355c-0.148,0.254-0.292,0.508-0.44,0.762
			c-0.363,0.631-0.15,1.404,0.476,1.771c1.018,0.596,2.043,1.179,3.063,1.768c0.17,0.1,0.341,0.198,0.51,0.295
			c0.508,0.286,1.194,0.227,1.586-0.232c0.193-0.226,0.329-0.518,0.478-0.771c0.086-0.146,0.171-0.296,0.258-0.443
			c0.019-0.029,0.035-0.063,0.054-0.092c0.024-0.047,0.051-0.092,0.078-0.139c0.025-0.041,0.052-0.085,0.078-0.123
			c0.005-0.007,0.033-0.046,0.046-0.064c0.092-0.117,0.192-0.229,0.302-0.33c0.035-0.034,0.072-0.065,0.109-0.096
			c0.006-0.006,0.017-0.015,0.026-0.021c0.072-0.052,0.143-0.103,0.22-0.146c0.061-0.035,0.119-0.069,0.181-0.102
			c0.018-0.008,0.07-0.038,0.116-0.059c0.021-0.008,0.04-0.015,0.06-0.023c-0.008-0.003-0.035,0.012-0.057,0.021
			c0.02-0.008,0.04-0.015,0.06-0.023c0.024-0.008,0.048-0.018,0.072-0.025c0.07-0.024,0.146-0.045,0.219-0.064
			c0.059-0.015,0.122-0.029,0.183-0.041c0.025-0.003,0.052-0.008,0.079-0.013c0,0.001-0.001,0.001-0.001,0.001
			c0.011-0.016,0.164-0.014,0.184-0.013c0.073-0.003,0.147-0.004,0.22-0.001c0.061,0.004,0.124,0.007,0.182,0.012
			c0,0,0.011,0.001,0.018,0.001c0.019,0.003,0.039,0.006,0.056,0.009c0.134,0.023,0.262,0.056,0.389,0.096
			c0.019,0.006,0.071,0.021,0.115,0.036c0.001,0.001,0.008,0.006,0.027,0.015c0.035,0.016,0.065,0.029,0.101,0.045
			c0.121,0.06,0.237,0.125,0.351,0.199c0.021,0.014,0.042,0.027,0.061,0.043c0.01,0.006,0.019,0.013,0.026,0.02
			c-0.01-0.009-0.021-0.019-0.025-0.018c0.026,0.02,0.039,0.028,0.046,0.033c0.038,0.03,0.085,0.075,0.098,0.085
			c0.102,0.093,0.198,0.192,0.287,0.297c0.018,0.019,0.03,0.041,0.048,0.06c-0.014-0.014-0.016-0.017-0.024-0.024
			c0.009,0.01,0.018,0.021,0.023,0.028c0.037,0.053,0.074,0.106,0.106,0.162c0.021,0.037,0.043,0.075,0.064,0.111
			c0.072,0.127,0.146,0.253,0.218,0.379c0.142,0.245,0.278,0.493,0.424,0.732c0.364,0.599,1.11,0.809,1.727,0.47
			c0.421-0.233,0.837-0.483,1.254-0.724c0.621-0.359,1.242-0.718,1.863-1.076c0.15-0.087,0.302-0.172,0.451-0.261
			c0.519-0.306,0.812-0.964,0.587-1.543c-0.115-0.302-0.306-0.58-0.467-0.859c-0.081-0.141-0.162-0.281-0.242-0.42
			c-0.016-0.026-0.032-0.056-0.048-0.083c-0.02-0.033-0.041-0.07-0.058-0.105c-0.017-0.029-0.111-0.182-0.098-0.209
			c-0.009-0.024-0.018-0.049-0.026-0.072c-0.021-0.059-0.04-0.119-0.055-0.179s-0.031-0.121-0.043-0.182
			c-0.004-0.024-0.01-0.05-0.014-0.073s-0.009-0.05-0.013-0.074c-0.009-0.059-0.006-0.048,0.003,0.034
			c-0.035-0.015-0.017-0.32-0.015-0.366c0-0.063,0.004-0.123,0.008-0.184c0.003-0.023,0.005-0.047,0.007-0.071
			c0.008-0.06,0.005-0.048-0.007,0.033c0.003-0.024,0.007-0.05,0.011-0.071c0.021-0.119,0.048-0.237,0.085-0.353
			c0.018-0.06,0.036-0.115,0.059-0.173c0.005-0.015-0.001-0.005-0.001-0.009c0.014-0.029,0.031-0.061,0.038-0.078
			c0.056-0.116,0.118-0.227,0.188-0.335c0.022-0.033,0.068-0.14,0.104-0.15c-0.002,0.002-0.089,0.109-0.02,0.027
			c0.029-0.033,0.055-0.067,0.084-0.101c0.083-0.093,0.173-0.183,0.268-0.265c0.021-0.018,0.042-0.035,0.063-0.053
			c0.057-0.039,0.111-0.08,0.172-0.118c0.068-0.043,0.139-0.083,0.211-0.122c0.037-0.018,0.075-0.037,0.113-0.055
			c0,0,0.059-0.025,0.08-0.035c0.025-0.01,0.054-0.02,0.054-0.02c0.038-0.013,0.076-0.025,0.114-0.037
			c0.085-0.026,0.17-0.047,0.255-0.063c0.03-0.007,0.062-0.011,0.092-0.016c-0.002,0.001,0.009-0.001,0.034-0.005
			c-0.001,0-0.002,0-0.003,0c0.007-0.001,0.013-0.002,0.019-0.003c-0.009,0.002-0.01,0.002-0.016,0.003
			c0.004-0.001,0.01-0.002,0.013-0.002c0.08-0.007,0.161-0.012,0.241-0.013c0.068,0,0.138,0.002,0.203,0.003
			c0.153,0.002,0.308,0,0.459,0c0.269,0,0.536,0.011,0.802,0c0.677-0.021,1.196-0.606,1.205-1.269
			C25.941,14.375,25.923,13.149,25.922,11.927z M17.382,13.751c-0.005,0.055-0.008,0.111-0.012,0.166
			c-0.003,0.024-0.005,0.048-0.007,0.072c-0.002,0.014-0.003,0.023-0.004,0.038c-0.008,0.06-0.005,0.048,0.004-0.032
			c0.017,0.078-0.034,0.21-0.051,0.289c-0.024,0.113-0.05,0.226-0.083,0.336c-0.029,0.101-0.062,0.197-0.098,0.296
			c-0.012,0.029-0.025,0.072-0.042,0.107c-0.016,0.035-0.029,0.066-0.045,0.101c-0.093,0.199-0.2,0.395-0.321,0.581
			c-0.028,0.042-0.056,0.083-0.085,0.123c-0.012,0.018-0.024,0.034-0.036,0.052c-0.075,0.091-0.147,0.181-0.226,0.268
			c-0.148,0.163-0.31,0.314-0.48,0.455c-0.021,0.016-0.07,0.076-0.016,0.013c0.061-0.067-0.016,0.013-0.031,0.024
			c-0.041,0.03-0.084,0.062-0.127,0.09c-0.085,0.049-0.184,0.112-0.286,0.171c-0.102,0.059-0.206,0.112-0.313,0.164
			c-0.045,0.022-0.094,0.045-0.14,0.065c-0.003,0.001-0.009,0.004-0.013,0.005c-0.003,0.001,0.002-0.001-0.009,0.003
			c-0.019,0.008-0.036,0.016-0.053,0.021c-0.212,0.08-0.431,0.145-0.653,0.189c-0.096,0.021-0.192,0.034-0.289,0.05
			c-0.022,0.001-0.042,0.004-0.065,0.006c-0.061,0.006-0.123,0.01-0.184,0.012c-0.214,0.011-0.429,0.009-0.645-0.013
			c-0.03-0.002-0.063-0.006-0.092-0.008c-0.021-0.002-0.103-0.003-0.021-0.002c0.081,0.002,0.004,0.001-0.02-0.005
			c-0.029-0.006-0.061-0.011-0.09-0.017c-0.107-0.018-0.215-0.041-0.321-0.069c-0.103-0.025-0.199-0.054-0.299-0.086
			c-0.053-0.019-0.104-0.034-0.156-0.052c-0.024-0.01-0.045-0.017-0.07-0.025c-0.011-0.003-0.021-0.01-0.033-0.014
			c-0.055-0.022-0.046-0.018,0.03,0.013c-0.029,0.007-0.107-0.045-0.135-0.059c-0.044-0.021-0.089-0.042-0.133-0.063
			c-0.104-0.053-0.205-0.108-0.305-0.17c-0.09-0.055-0.178-0.111-0.265-0.171c-0.012-0.008-0.022-0.016-0.034-0.024
			c-0.001-0.001-0.002-0.002-0.003-0.002c-0.008-0.006-0.015-0.012-0.023-0.017c-0.036-0.025-0.034-0.023-0.023-0.015
			c-0.036-0.028-0.073-0.064-0.095-0.083c-0.174-0.145-0.334-0.305-0.483-0.475c-0.035-0.037-0.067-0.077-0.101-0.116
			c-0.011-0.014-0.094-0.091-0.026-0.03c0.06,0.053,0.003,0.005-0.013-0.016c-0.073-0.1-0.141-0.199-0.208-0.304
			c-0.12-0.192-0.228-0.396-0.317-0.606c-0.002-0.004-0.002-0.004-0.004-0.008c-0.008-0.021-0.017-0.047-0.017-0.047
			c-0.019-0.048-0.036-0.096-0.052-0.145C9.73,14.68,9.698,14.573,9.67,14.463s-0.052-0.219-0.069-0.328
			c-0.01-0.05-0.016-0.099-0.024-0.148c-0.003-0.025-0.003-0.022-0.004-0.026c-0.001-0.02-0.003-0.043-0.004-0.05
			c-0.021-0.221-0.022-0.443-0.011-0.663c0.003-0.051,0.006-0.097,0.013-0.146c0.001-0.026,0-0.092,0.012-0.125
			c0.001-0.005,0.001,0,0.002-0.006c0.005-0.025,0.007-0.049,0.013-0.073c0.011-0.061,0.022-0.119,0.036-0.179
			c0.044-0.21,0.103-0.416,0.175-0.616c0.01-0.028,0.021-0.058,0.031-0.086c0.008-0.021,0.045-0.09,0.006-0.019
			c-0.041,0.075,0.032-0.077,0.045-0.101c0.045-0.101,0.096-0.198,0.15-0.294c0.051-0.091,0.105-0.181,0.162-0.269
			c0.031-0.047,0.06-0.093,0.092-0.137c0.013-0.019,0.026-0.036,0.038-0.054c0.004-0.004,0.001,0,0.008-0.008
			c0.138-0.17,0.282-0.334,0.441-0.484c0.077-0.074,0.158-0.146,0.242-0.214c0,0,0.024-0.022,0.042-0.036
			c0.003-0.002,0,0.001,0.003-0.001c0.049-0.034,0.095-0.067,0.143-0.102c0.195-0.132,0.397-0.252,0.608-0.352
			c0.046-0.022,0.095-0.044,0.141-0.064c0.019-0.007,0.126-0.034,0.037-0.015c-0.081,0.017-0.005,0.002,0.019-0.008
			c0.111-0.042,0.227-0.083,0.342-0.113c0.208-0.059,0.419-0.098,0.631-0.134c0.022-0.002,0.044-0.005,0.067-0.006
			c0.049-0.006,0.099-0.009,0.148-0.012c0.116-0.006,0.234-0.009,0.35-0.005c0.104,0.001,0.209,0.009,0.312,0.018
			c0.02,0.001,0.054,0.001,0.087,0.003c-0.003,0.002,0,0.005,0.026,0.009c0.036,0.005,0.071,0.011,0.108,0.019
			c0.216,0.037,0.431,0.091,0.639,0.159c0.047,0.015,0.092,0.031,0.138,0.049c0.024,0.009,0.045,0.017,0.069,0.025
			c0.013,0.005,0.118,0.058,0.037,0.014c-0.071-0.04,0,0,0.019,0.009c0.027,0.014,0.057,0.025,0.084,0.039
			c0.049,0.023,0.099,0.047,0.148,0.073c0.197,0.1,0.386,0.214,0.566,0.342c0.013,0.008,0.023,0.016,0.034,0.024
			c0.044,0.036,0.088,0.068,0.131,0.104c0.087,0.073,0.17,0.148,0.249,0.225c0.082,0.079,0.158,0.161,0.233,0.247
			c0.035,0.038,0.067,0.078,0.101,0.117c0.015,0.021,0.031,0.043,0.047,0.06c-0.001-0.001-0.001-0.001-0.003-0.003
			c0.002,0.002,0.004,0.004,0.005,0.005c0.138,0.189,0.263,0.389,0.373,0.597c0.047,0.092,0.094,0.185,0.134,0.282
			c0.004,0.011,0.013,0.029,0.021,0.047c0.001,0.003,0.001,0.005,0.002,0.008c0.021,0.059,0.043,0.121,0.064,0.18
			c0.069,0.209,0.123,0.42,0.161,0.638c0.01,0.055,0.016,0.109,0.025,0.166c0.002,0.02,0.004,0.04,0.005,0.06
			c0.009,0.111,0.015,0.222,0.018,0.333C17.391,13.542,17.388,13.644,17.382,13.751z M16.58,11.122
			C16.553,11.089,16.485,11.027,16.58,11.122L16.58,11.122z"/>
	</g>
	<g>
		<path fill="none" stroke="#ACACC1" stroke-miterlimit="10" d="M25.922,11.927c-0.002-0.154,0-0.308-0.001-0.462
			c0.022-0.621-0.394-1.096-0.97-1.239c-0.072-0.036-0.151-0.06-0.239-0.06c-0.465,0.002-0.928,0.001-1.391,0
			c0.003,0.001,0.007,0.002,0.01,0.002c-0.084-0.008-0.17-0.009-0.261-0.017c-0.028-0.001-0.056-0.005-0.084-0.008
			c-0.005-0.001-0.01-0.002-0.014-0.003c-0.08-0.015-0.157-0.032-0.236-0.051c-0.065-0.018-0.13-0.035-0.191-0.058
			c-0.04-0.013-0.077-0.026-0.114-0.041c-0.005-0.002-0.005-0.001-0.009-0.003c-0.124-0.036-0.258-0.129-0.363-0.193
			c-0.021-0.013-0.125-0.102-0.159-0.107c-0.008-0.006-0.015-0.012-0.022-0.017c-0.021-0.018-0.043-0.034-0.063-0.054
			c-0.115-0.099-0.222-0.209-0.32-0.324c-0.004-0.005-0.011-0.011-0.017-0.017c-0.017-0.017-0.034-0.048-0.046-0.063
			c-0.039-0.058-0.078-0.12-0.116-0.179c-0.029-0.051-0.059-0.102-0.084-0.152c-0.019-0.037-0.037-0.075-0.058-0.115
			c-0.003-0.006-0.008-0.015-0.013-0.023c-0.061-0.115-0.092-0.265-0.122-0.391c-0.016-0.065-0.029-0.135-0.041-0.199
			c-0.001-0.006-0.009-0.076-0.011-0.08c-0.002-0.027-0.004-0.055-0.005-0.061c-0.01-0.134-0.008-0.271,0.003-0.403
			c0.003-0.03,0.006-0.058,0.01-0.087c0.001-0.005,0-0.002,0.002-0.01c0.016-0.08,0.028-0.158,0.049-0.235
			c0.018-0.065,0.034-0.13,0.056-0.194c0.009-0.024,0.016-0.051,0.027-0.077c0.005-0.013,0.008-0.024,0.014-0.038
			c0.002-0.004,0.001-0.002,0.002-0.005c0.03-0.046,0.051-0.117,0.071-0.16c0.026-0.054,0.058-0.107,0.086-0.16
			c0.047-0.085,0.099-0.17,0.146-0.256c0.163-0.282,0.325-0.567,0.489-0.849c0.315-0.547,0.266-1.253-0.251-1.667
			c-0.144-0.114-0.307-0.201-0.467-0.293c-0.256-0.146-0.511-0.297-0.768-0.444c-0.641-0.371-1.28-0.739-1.921-1.11
			c-0.194-0.112-0.388-0.223-0.582-0.334c-0.412-0.238-0.905-0.28-1.327-0.036c-0.342,0.197-0.507,0.545-0.697,0.871
			c-0.156,0.272-0.306,0.546-0.468,0.814c-0.041,0.069-0.087,0.135-0.132,0.203c-0.007,0.01-0.005,0.008-0.009,0.014
			c-0.003,0.002-0.001-0.001-0.004,0.003c-0.026,0.028-0.052,0.062-0.076,0.092c-0.053,0.06-0.107,0.117-0.166,0.173
			c-0.035,0.033-0.07,0.067-0.105,0.096c-0.011,0.009-0.042,0.034-0.061,0.05c-0.116,0.086-0.239,0.165-0.368,0.233
			c-0.055,0.029-0.112,0.056-0.169,0.083c-0.039,0.014-0.075,0.029-0.114,0.042c-0.12,0.04-0.239,0.073-0.362,0.096
			c-0.03,0.004-0.063,0.01-0.091,0.017c-0.01,0.002-0.003,0.003-0.01,0.005c-0.052,0.017-0.157,0.011-0.193,0.013
			c-0.123,0.006-0.245,0.002-0.365-0.01c-0.023-0.002-0.047-0.004-0.071-0.007c-0.003,0,0,0-0.004-0.001
			c-0.072-0.013-0.143-0.028-0.214-0.045c-0.117-0.029-0.232-0.066-0.347-0.107c-0.021-0.008-0.028-0.01-0.032-0.011
			c-0.016-0.008-0.033-0.018-0.038-0.02c-0.065-0.03-0.131-0.063-0.194-0.101c-0.054-0.031-0.106-0.062-0.155-0.095
			c-0.021-0.014-0.042-0.028-0.063-0.042C12.103,4.015,12.092,4.008,12.082,4c-0.05-0.036-0.04-0.029,0.026,0.024
			c-0.038-0.004-0.115-0.093-0.143-0.119c-0.052-0.044-0.103-0.093-0.149-0.14c-0.045-0.045-0.088-0.092-0.129-0.14
			c-0.018-0.02-0.034-0.04-0.051-0.061c-0.063-0.092-0.124-0.182-0.182-0.276c-0.054-0.093-0.105-0.183-0.158-0.274
			c-0.163-0.281-0.324-0.567-0.49-0.85C10.45,1.562,9.697,1.339,9.076,1.663C8.683,1.867,8.304,2.108,7.919,2.331
			C7.29,2.693,6.662,3.056,6.031,3.42c-0.18,0.104-0.359,0.207-0.539,0.311C5.013,3.999,4.761,4.497,4.843,5.048
			C4.893,5.381,5.12,5.69,5.285,5.977C5.43,6.227,5.582,6.475,5.717,6.73c0.03,0.057,0.058,0.116,0.085,0.175
			C5.81,6.921,5.811,6.923,5.813,6.929C5.82,6.951,5.826,6.974,5.828,6.98C5.874,7.109,5.91,7.244,5.936,7.378
			c0.004,0.023,0.009,0.05,0.013,0.073c0.001,0.012,0.004,0.023,0.005,0.036c0.009,0.06,0.008,0.047-0.003-0.034
			c0.024,0.031,0.012,0.145,0.016,0.185c0.007,0.129,0.006,0.256-0.004,0.384C5.96,8.053,5.955,8.083,5.953,8.114
			c0,0.003,0,0-0.001,0.004C5.94,8.177,5.931,8.238,5.917,8.298C5.889,8.424,5.849,8.544,5.808,8.665
			c-0.002,0.006,0.001,0.001,0,0.006C5.799,8.693,5.785,8.722,5.779,8.733C5.754,8.79,5.728,8.844,5.696,8.897
			C5.674,8.937,5.533,9.225,5.49,9.224c0.016-0.019,0.03-0.037,0.042-0.057c-0.016,0.019-0.029,0.039-0.047,0.06
			c-0.019,0.023-0.04,0.049-0.06,0.07C5.385,9.343,5.344,9.389,5.299,9.435S5.21,9.521,5.163,9.564
			C5.14,9.585,5.115,9.605,5.092,9.625c-0.005,0.004-0.01,0.008-0.015,0.012c0.002-0.003,0.012-0.008,0.012-0.011
			c-0.015,0.014-0.03,0.025-0.046,0.037C5.005,9.692,4.951,9.724,4.93,9.738C4.871,9.775,4.814,9.812,4.752,9.844
			c-0.074,0.04-0.149,0.077-0.226,0.114C4.509,9.966,4.511,9.966,4.504,9.97C4.496,9.973,4.499,9.971,4.482,9.977
			c-0.045,0.017-0.091,0.033-0.14,0.049c-0.146,0.044-0.295,0.077-0.446,0.098c-0.026,0.002-0.063,0.005-0.071,0.005l-0.094,0.006
			c-0.07,0.002-0.139,0-0.207,0c-0.116-0.001-0.229,0-0.347-0.001c-0.28,0-0.562,0.001-0.845,0
			c-0.356-0.001-0.685,0.107-0.946,0.355c-0.242,0.23-0.369,0.56-0.382,0.891c-0.014,0.464,0.001,0.931,0,1.395
			c0,0.728,0.001,1.453,0.001,2.181c0.001,0.187,0,0.376,0,0.56c0,0.611,0.393,1.185,1.014,1.298
			c0.297,0.056,0.617,0.026,0.918,0.026c0.285,0.001,0.574-0.014,0.857,0c0.063,0.004,0.128,0.01,0.191,0.017
			c0.004,0.001,0.002,0.001,0.007,0.002c0.033,0.007,0.064,0.011,0.098,0.019c0.139,0.026,0.273,0.064,0.408,0.113
			c0.013,0.006,0.024,0.009,0.037,0.014c0.005,0.002,0.002,0.001,0.007,0.002c0.019,0.008,0.04,0.016,0.048,0.02
			c0.062,0.028,0.121,0.059,0.181,0.089c0.061,0.033,0.119,0.067,0.176,0.103c0.035,0.021,0.068,0.045,0.101,0.068
			c0.017,0.012,0.033,0.023,0.05,0.036c0.1,0.062,0.198,0.174,0.271,0.251c0.048,0.05,0.093,0.104,0.139,0.156
			c0.004,0.005,0.002,0.002,0.005,0.005c0.004,0.006,0.001,0.003,0.007,0.011c0.023,0.035,0.05,0.068,0.073,0.104
			c0.071,0.107,0.135,0.223,0.192,0.338c0.014,0.031,0.034,0.066,0.045,0.1c0.026,0.077,0.056,0.155,0.077,0.231
			c0.02,0.066,0.035,0.132,0.049,0.202c0.008,0.04,0.016,0.081,0.021,0.12c0.001,0.006,0.002,0.014,0.004,0.021
			c0.021,0.131,0.016,0.275,0.011,0.404c-0.004,0.063-0.009,0.129-0.015,0.194c-0.001,0.003,0-0.002-0.002,0.006
			c-0.007,0.033-0.01,0.067-0.017,0.101c-0.028,0.146-0.066,0.287-0.118,0.428c-0.001,0.004-0.011,0.03-0.018,0.051
			c-0.007,0.019-0.015,0.038-0.016,0.04c-0.027,0.061-0.064,0.118-0.09,0.181c-0.007,0.018-0.007,0.021-0.008,0.026
			c-0.017,0.022-0.037,0.045-0.05,0.065c-0.007,0.01-0.011,0.02-0.019,0.029c-0.07,0.119-0.137,0.238-0.205,0.355
			c-0.148,0.254-0.292,0.508-0.44,0.762c-0.363,0.631-0.15,1.404,0.476,1.771c1.018,0.596,2.043,1.179,3.063,1.768
			c0.17,0.1,0.341,0.198,0.51,0.295c0.508,0.286,1.194,0.227,1.586-0.232c0.193-0.226,0.329-0.518,0.478-0.771
			c0.086-0.146,0.171-0.296,0.258-0.443c0.019-0.029,0.035-0.063,0.054-0.092c0.024-0.047,0.051-0.092,0.078-0.139
			c0.025-0.041,0.052-0.085,0.078-0.123c0.005-0.007,0.033-0.046,0.046-0.064c0.092-0.117,0.192-0.229,0.302-0.33
			c0.035-0.034,0.072-0.065,0.109-0.096c0.006-0.006,0.017-0.015,0.026-0.021c0.072-0.052,0.143-0.103,0.22-0.146
			c0.061-0.035,0.119-0.069,0.181-0.102c0.018-0.008,0.07-0.038,0.116-0.059c0.021-0.008,0.04-0.015,0.06-0.023
			c-0.008-0.003-0.035,0.012-0.057,0.021c0.02-0.008,0.04-0.015,0.06-0.023c0.024-0.008,0.048-0.018,0.072-0.025
			c0.07-0.024,0.146-0.045,0.219-0.064c0.059-0.015,0.122-0.029,0.183-0.041c0.025-0.003,0.052-0.008,0.079-0.013
			c0,0.001-0.001,0.001-0.001,0.001c0.011-0.016,0.164-0.014,0.184-0.013c0.073-0.003,0.147-0.004,0.22-0.001
			c0.061,0.004,0.124,0.007,0.182,0.012c0,0,0.011,0.001,0.018,0.001c0.019,0.003,0.039,0.006,0.056,0.009
			c0.134,0.023,0.262,0.056,0.389,0.096c0.019,0.006,0.071,0.021,0.115,0.036c0.001,0.001,0.008,0.006,0.027,0.015
			c0.035,0.016,0.065,0.029,0.101,0.045c0.121,0.06,0.237,0.125,0.351,0.199c0.021,0.014,0.042,0.027,0.061,0.043
			c0.01,0.006,0.019,0.013,0.026,0.02c-0.01-0.009-0.021-0.019-0.025-0.018c0.026,0.02,0.039,0.028,0.046,0.033
			c0.038,0.03,0.085,0.075,0.098,0.085c0.102,0.093,0.198,0.192,0.287,0.297c0.018,0.019,0.03,0.041,0.048,0.06
			c-0.014-0.014-0.016-0.017-0.024-0.024c0.009,0.01,0.018,0.021,0.023,0.028c0.037,0.053,0.074,0.106,0.106,0.162
			c0.021,0.037,0.043,0.075,0.064,0.111c0.072,0.127,0.146,0.253,0.218,0.379c0.142,0.245,0.278,0.493,0.424,0.732
			c0.364,0.599,1.11,0.809,1.727,0.47c0.421-0.233,0.837-0.483,1.254-0.724c0.621-0.359,1.242-0.718,1.863-1.076
			c0.15-0.087,0.302-0.172,0.451-0.261c0.519-0.306,0.812-0.964,0.587-1.543c-0.115-0.302-0.306-0.58-0.467-0.859
			c-0.081-0.141-0.162-0.281-0.242-0.42c-0.016-0.026-0.032-0.056-0.048-0.083c-0.02-0.033-0.041-0.07-0.058-0.105
			c-0.017-0.029-0.111-0.182-0.098-0.209c-0.009-0.024-0.018-0.049-0.026-0.072c-0.021-0.059-0.04-0.119-0.055-0.179
			s-0.031-0.121-0.043-0.182c-0.004-0.024-0.01-0.05-0.014-0.073s-0.009-0.05-0.013-0.074c-0.009-0.059-0.006-0.048,0.003,0.034
			c-0.035-0.015-0.017-0.32-0.015-0.366c0-0.063,0.004-0.123,0.008-0.184c0.003-0.023,0.005-0.047,0.007-0.071
			c0.008-0.06,0.005-0.048-0.007,0.033c0.003-0.024,0.007-0.05,0.011-0.071c0.021-0.119,0.048-0.237,0.085-0.353
			c0.018-0.06,0.036-0.115,0.059-0.173c0.005-0.015-0.001-0.005-0.001-0.009c0.014-0.029,0.031-0.061,0.038-0.078
			c0.056-0.116,0.118-0.227,0.188-0.335c0.022-0.033,0.068-0.14,0.104-0.15c-0.002,0.002-0.089,0.109-0.02,0.027
			c0.029-0.033,0.055-0.067,0.084-0.101c0.083-0.093,0.173-0.183,0.268-0.265c0.021-0.018,0.042-0.035,0.063-0.053
			c0.057-0.039,0.111-0.08,0.172-0.118c0.068-0.043,0.139-0.083,0.211-0.122c0.037-0.018,0.075-0.037,0.113-0.055
			c0,0,0.059-0.025,0.08-0.035c0.025-0.01,0.054-0.02,0.054-0.02c0.038-0.013,0.076-0.025,0.114-0.037
			c0.085-0.026,0.17-0.047,0.255-0.063c0.03-0.007,0.062-0.011,0.092-0.016c-0.002,0.001,0.009-0.001,0.034-0.005
			c-0.001,0-0.002,0-0.003,0c0.007-0.001,0.013-0.002,0.019-0.003c-0.009,0.002-0.01,0.002-0.016,0.003
			c0.004-0.001,0.01-0.002,0.013-0.002c0.08-0.007,0.161-0.012,0.241-0.013c0.068,0,0.138,0.002,0.203,0.003
			c0.153,0.002,0.308,0,0.459,0c0.269,0,0.536,0.011,0.802,0c0.677-0.021,1.196-0.606,1.205-1.269
			C25.941,14.375,25.923,13.149,25.922,11.927z M17.382,13.751c-0.005,0.055-0.008,0.111-0.012,0.166
			c-0.003,0.024-0.005,0.048-0.007,0.072c-0.002,0.014-0.003,0.023-0.004,0.038c-0.008,0.06-0.005,0.048,0.004-0.032
			c0.017,0.078-0.034,0.21-0.051,0.289c-0.024,0.113-0.05,0.226-0.083,0.336c-0.029,0.101-0.062,0.197-0.098,0.296
			c-0.012,0.029-0.025,0.072-0.042,0.107c-0.016,0.035-0.029,0.066-0.045,0.101c-0.093,0.199-0.2,0.395-0.321,0.581
			c-0.028,0.042-0.056,0.083-0.085,0.123c-0.012,0.018-0.024,0.034-0.036,0.052c-0.075,0.091-0.147,0.181-0.226,0.268
			c-0.148,0.163-0.31,0.314-0.48,0.455c-0.021,0.016-0.07,0.076-0.016,0.013c0.061-0.067-0.016,0.013-0.031,0.024
			c-0.041,0.03-0.084,0.062-0.127,0.09c-0.085,0.049-0.184,0.112-0.286,0.171c-0.102,0.059-0.206,0.112-0.313,0.164
			c-0.045,0.022-0.094,0.045-0.14,0.065c-0.003,0.001-0.009,0.004-0.013,0.005c-0.003,0.001,0.002-0.001-0.009,0.003
			c-0.019,0.008-0.036,0.016-0.053,0.021c-0.212,0.08-0.431,0.145-0.653,0.189c-0.096,0.021-0.192,0.034-0.289,0.05
			c-0.022,0.001-0.042,0.004-0.065,0.006c-0.061,0.006-0.123,0.01-0.184,0.012c-0.214,0.011-0.429,0.009-0.645-0.013
			c-0.03-0.002-0.063-0.006-0.092-0.008c-0.021-0.002-0.103-0.003-0.021-0.002c0.081,0.002,0.004,0.001-0.02-0.005
			c-0.029-0.006-0.061-0.011-0.09-0.017c-0.107-0.018-0.215-0.041-0.321-0.069c-0.103-0.025-0.199-0.054-0.299-0.086
			c-0.053-0.019-0.104-0.034-0.156-0.052c-0.024-0.01-0.045-0.017-0.07-0.025c-0.011-0.003-0.021-0.01-0.033-0.014
			c-0.055-0.022-0.046-0.018,0.03,0.013c-0.029,0.007-0.107-0.045-0.135-0.059c-0.044-0.021-0.089-0.042-0.133-0.063
			c-0.104-0.053-0.205-0.108-0.305-0.17c-0.09-0.055-0.178-0.111-0.265-0.171c-0.012-0.008-0.022-0.016-0.034-0.024
			c-0.001-0.001-0.002-0.002-0.003-0.002c-0.008-0.006-0.015-0.012-0.023-0.017c-0.036-0.025-0.034-0.023-0.023-0.015
			c-0.036-0.028-0.073-0.064-0.095-0.083c-0.174-0.145-0.334-0.305-0.483-0.475c-0.035-0.037-0.067-0.077-0.101-0.116
			c-0.011-0.014-0.094-0.091-0.026-0.03c0.06,0.053,0.003,0.005-0.013-0.016c-0.073-0.1-0.141-0.199-0.208-0.304
			c-0.12-0.192-0.228-0.396-0.317-0.606c-0.002-0.004-0.002-0.004-0.004-0.008c-0.008-0.021-0.017-0.047-0.017-0.047
			c-0.019-0.048-0.036-0.096-0.052-0.145C9.73,14.68,9.698,14.573,9.67,14.463s-0.052-0.219-0.069-0.328
			c-0.01-0.05-0.016-0.099-0.024-0.148c-0.003-0.025-0.003-0.022-0.004-0.026c-0.001-0.02-0.003-0.043-0.004-0.05
			c-0.021-0.221-0.022-0.443-0.011-0.663c0.003-0.051,0.006-0.097,0.013-0.146c0.001-0.026,0-0.092,0.012-0.125
			c0.001-0.005,0.001,0,0.002-0.006c0.005-0.025,0.007-0.049,0.013-0.073c0.011-0.061,0.022-0.119,0.036-0.179
			c0.044-0.21,0.103-0.416,0.175-0.616c0.01-0.028,0.021-0.058,0.031-0.086c0.008-0.021,0.045-0.09,0.006-0.019
			c-0.041,0.075,0.032-0.077,0.045-0.101c0.045-0.101,0.096-0.198,0.15-0.294c0.051-0.091,0.105-0.181,0.162-0.269
			c0.031-0.047,0.06-0.093,0.092-0.137c0.013-0.019,0.026-0.036,0.038-0.054c0.004-0.004,0.001,0,0.008-0.008
			c0.138-0.17,0.282-0.334,0.441-0.484c0.077-0.074,0.158-0.146,0.242-0.214c0,0,0.024-0.022,0.042-0.036
			c0.003-0.002,0,0.001,0.003-0.001c0.049-0.034,0.095-0.067,0.143-0.102c0.195-0.132,0.397-0.252,0.608-0.352
			c0.046-0.022,0.095-0.044,0.141-0.064c0.019-0.007,0.126-0.034,0.037-0.015c-0.081,0.017-0.005,0.002,0.019-0.008
			c0.111-0.042,0.227-0.083,0.342-0.113c0.208-0.059,0.419-0.098,0.631-0.134c0.022-0.002,0.044-0.005,0.067-0.006
			c0.049-0.006,0.099-0.009,0.148-0.012c0.116-0.006,0.234-0.009,0.35-0.005c0.104,0.001,0.209,0.009,0.312,0.018
			c0.02,0.001,0.054,0.001,0.087,0.003c-0.003,0.002,0,0.005,0.026,0.009c0.036,0.005,0.071,0.011,0.108,0.019
			c0.216,0.037,0.431,0.091,0.639,0.159c0.047,0.015,0.092,0.031,0.138,0.049c0.024,0.009,0.045,0.017,0.069,0.025
			c0.013,0.005,0.118,0.058,0.037,0.014c-0.071-0.04,0,0,0.019,0.009c0.027,0.014,0.057,0.025,0.084,0.039
			c0.049,0.023,0.099,0.047,0.148,0.073c0.197,0.1,0.386,0.214,0.566,0.342c0.013,0.008,0.023,0.016,0.034,0.024
			c0.044,0.036,0.088,0.068,0.131,0.104c0.087,0.073,0.17,0.148,0.249,0.225c0.082,0.079,0.158,0.161,0.233,0.247
			c0.035,0.038,0.067,0.078,0.101,0.117c0.015,0.021,0.031,0.043,0.047,0.06c-0.001-0.001-0.001-0.001-0.003-0.003
			c0.002,0.002,0.004,0.004,0.005,0.005c0.138,0.189,0.263,0.389,0.373,0.597c0.047,0.092,0.094,0.185,0.134,0.282
			c0.004,0.011,0.013,0.029,0.021,0.047c0.001,0.003,0.001,0.005,0.002,0.008c0.021,0.059,0.043,0.121,0.064,0.18
			c0.069,0.209,0.123,0.42,0.161,0.638c0.01,0.055,0.016,0.109,0.025,0.166c0.002,0.02,0.004,0.04,0.005,0.06
			c0.009,0.111,0.015,0.222,0.018,0.333C17.391,13.542,17.388,13.644,17.382,13.751z M16.58,11.122
			C16.553,11.089,16.485,11.027,16.58,11.122L16.58,11.122z"/>
	</g>
</g>
</svg>
