<?xml version="1.0" encoding="utf-8"?>
<!-- Generator: Adobe Illustrator 16.0.0, SVG Export Plug-In . SVG Version: 6.00 Build 0)  -->
<!DOCTYPE svg PUBLIC "-//W3C//DTD SVG 1.1//EN" "http://www.w3.org/Graphics/SVG/1.1/DTD/svg11.dtd">
<svg version="1.1" id="Layer_1" xmlns="http://www.w3.org/2000/svg" xmlns:xlink="http://www.w3.org/1999/xlink" x="0px" y="0px"
	 width="60px" height="50px" viewBox="0 0 60 50" enable-background="new 0 0 60 50" xml:space="preserve">
<g>
	<g>
		<path fill="#868691" d="M49.594,46.72V15.819l-7.207,7.008V46.72h-4.755V27.454l-3.506,3.413
			c-0.986,0.969-2.303,1.554-3.702,1.643v14.21h-4.754V31.016l-7.208-3.793V46.72h-4.754V30.7l-7.208,6.276v9.743h-6.604v2.778
			h60.238V46.72H49.594z M6.049,32.575l11.421-9.944l11.524,6.074c0.833,0.438,1.864,0.292,2.533-0.36L53.266,7.19v4.912
			c0,1.15,0.959,2.084,2.141,2.084c1.184,0,2.143-0.934,2.143-2.084V2.157c0-1.152-0.959-2.084-2.143-2.084h-10.22
			c-1.183,0-2.141,0.933-2.141,2.084c0,1.15,0.958,2.084,2.141,2.084h5.053l-20.61,20.058l-11.445-6.031
			c-0.795-0.419-1.774-0.307-2.448,0.279L3.192,29.468c-0.88,0.77-0.953,2.088-0.163,2.944C3.817,33.266,5.168,33.34,6.049,32.575z"
			/>
	</g>
	<g>
		<path fill="none" stroke="#868691" stroke-miterlimit="10" d="M49.594,46.72V15.819l-7.207,7.008V46.72h-4.755V27.454
			l-3.506,3.413c-0.986,0.969-2.303,1.554-3.702,1.643v14.21h-4.754V31.016l-7.208-3.793V46.72h-4.754V30.7l-7.208,6.276v9.743
			h-6.604v2.778h60.238V46.72H49.594z M6.049,32.575l11.421-9.944l11.524,6.074c0.833,0.438,1.864,0.292,2.533-0.36L53.266,7.19
			v4.912c0,1.15,0.959,2.084,2.141,2.084c1.184,0,2.143-0.934,2.143-2.084V2.157c0-1.152-0.959-2.084-2.143-2.084h-10.22
			c-1.183,0-2.141,0.933-2.141,2.084c0,1.15,0.958,2.084,2.141,2.084h5.053l-20.61,20.058l-11.445-6.031
			c-0.795-0.419-1.774-0.307-2.448,0.279L3.192,29.468c-0.88,0.77-0.953,2.088-0.163,2.944C3.817,33.266,5.168,33.34,6.049,32.575z"
			/>
	</g>
</g>
</svg>
