<svg viewBox="0 0 9 8" fill="none" xmlns="http://www.w3.org/2000/svg">
<path d="M8.78226 1.63944C8.64261 1.31862 8.44127 1.0279 8.18948 0.783545C7.9375 0.538463 7.64042 0.3437 7.31438 0.209847C6.9763 0.0704978 6.61368 -0.000828799 6.24759 7.26568e-06C5.73399 7.26568e-06 5.23289 0.139556 4.79742 0.403147C4.69325 0.466202 4.59428 0.535459 4.50052 0.610919C4.40675 0.535459 4.30779 0.466202 4.20361 0.403147C3.76814 0.139556 3.26704 7.26568e-06 2.75344 7.26568e-06C2.38361 7.26568e-06 2.02523 0.0702983 1.68665 0.209847C1.35953 0.344226 1.06471 0.537527 0.811551 0.783545C0.559436 1.02762 0.358039 1.31841 0.218775 1.63944C0.0739668 1.97332 0 2.32788 0 2.69277C0 3.03699 0.0708415 3.39568 0.211483 3.76057C0.329204 4.06551 0.497974 4.38182 0.713623 4.70123C1.05533 5.20671 1.52517 5.73389 2.10857 6.26831C3.07535 7.15418 4.03275 7.76613 4.07338 7.79094L4.32029 7.94806C4.42967 8.01731 4.57032 8.01731 4.6797 7.94806L4.92661 7.79094C4.96724 7.76509 5.92359 7.15418 6.89141 6.26831C7.47481 5.73389 7.94466 5.20671 8.28637 4.70123C8.50202 4.38182 8.67183 4.06551 8.78851 3.76057C8.92915 3.39568 8.99999 3.03699 8.99999 2.69277C9.00103 2.32788 8.92706 1.97332 8.78226 1.63944ZM4.50052 7.13041C4.50052 7.13041 0.791757 4.77256 0.791757 2.69277C0.791757 1.63944 1.66998 0.785612 2.75344 0.785612C3.51499 0.785612 4.17548 1.20736 4.50052 1.82344C4.82555 1.20736 5.48605 0.785612 6.24759 0.785612C7.33105 0.785612 8.20927 1.63944 8.20927 2.69277C8.20927 4.77256 4.50052 7.13041 4.50052 7.13041Z" fill="white"/>
</svg>
