<?xml version="1.0" encoding="utf-8"?>
<!-- Generator: Adobe Illustrator 16.0.0, SVG Export Plug-In . SVG Version: 6.00 Build 0)  -->
<!DOCTYPE svg PUBLIC "-//W3C//DTD SVG 1.1//EN" "http://www.w3.org/Graphics/SVG/1.1/DTD/svg11.dtd">
<svg version="1.1" id="Layer_1" xmlns="http://www.w3.org/2000/svg" xmlns:xlink="http://www.w3.org/1999/xlink" x="0px" y="0px"
	viewBox="0 0 48 58" enable-background="new 0 0 48 58" xml:space="preserve">
<path fill="#FFFFFF" stroke="#FFFFFF" stroke-miterlimit="10" d="M3.703,56.227h5.858c0.965,0,1.861-0.416,2.412-1.107
	c1.172,1.453,2.964,2.35,5.031,2.35h6.34h0.621h9.993h2.344h0.758c4.41,0,7.236-2.35,7.787-6.357l2.688-17.003v-0.414
	c0-3.594-2.894-6.566-6.547-6.566h-1.516h-5.514h-3.17v-7.326c0-3.11-0.896-5.322-2.688-6.635c-2.825-2.074-6.685-0.898-6.823-0.83
	l-0.827,0.276v9.054c0,6.497-7.512,8.708-7.788,8.777l-0.621,0.139c-0.551-0.76-1.516-1.244-2.55-1.244H3.634
	c-1.792,0-3.17,1.452-3.17,3.179v20.458C0.533,54.844,1.98,56.227,3.703,56.227z M22.863,21.668v-7.326
	c1.034-0.138,2.756-0.276,3.998,0.691c1.171,0.829,1.723,2.419,1.723,4.769v9.676h5.444h5.514h1.517
	c2.343,0,4.204,1.935,4.204,4.216v0.139l-2.688,16.933v0.068c-0.346,2.904-2.206,4.355-5.445,4.355h-0.758h-2.344h-9.993h-0.621
	h-6.34c-2.343,0-4.204-1.936-4.204-4.217V32.864l0.551-0.138C13.766,32.589,22.863,29.962,22.863,21.668z M2.808,32.589
	c0-0.484,0.414-0.898,0.896-0.898h5.858c0.482,0,0.896,0.414,0.896,0.898v20.458c0,0.482-0.414,0.898-0.896,0.898H3.703
	c-0.482,0-0.896-0.416-0.896-0.898V32.589z M4.944,50.352c0-0.969,0.758-1.729,1.723-1.729s1.723,0.76,1.723,1.729
	c0,0.967-0.758,1.727-1.723,1.727C5.702,52.01,4.944,51.25,4.944,50.352z"/>
<path fill="#FFFFFF" stroke="#FFFFFF" stroke-miterlimit="10" d="M37.291,16.602h6.666c0.525,0,0.951,0.426,0.951,0.952
	s-0.426,0.953-0.951,0.953h-6.666c-0.525,0-0.951-0.427-0.951-0.953S36.766,16.602,37.291,16.602z"/>
<path fill="#FFFFFF" stroke="#FFFFFF" stroke-miterlimit="10" d="M35.428,10.168l6.341-3.808c0.455-0.263,1.037-0.107,1.301,0.348
	c0.263,0.456,0.106,1.038-0.349,1.301l-6.341,3.808c-0.455,0.263-1.038,0.106-1.301-0.349S34.973,10.431,35.428,10.168z"/>
<path fill="#FFFFFF" stroke="#FFFFFF" stroke-miterlimit="10" d="M30.8,6.698l2.464-5.388C33.4,0.802,33.922,0.5,34.43,0.637
	c0.508,0.136,0.81,0.658,0.674,1.166L32.639,7.19c-0.136,0.508-0.658,0.809-1.166,0.674C30.965,7.728,30.664,7.206,30.8,6.698z"/>
</svg>
