<?xml version="1.0" encoding="utf-8"?>
<!-- Generator: Adobe Illustrator 16.0.0, SVG Export Plug-In . SVG Version: 6.00 Build 0)  -->
<!DOCTYPE svg PUBLIC "-//W3C//DTD SVG 1.1//EN" "http://www.w3.org/Graphics/SVG/1.1/DTD/svg11.dtd">
<svg version="1.1" id="Layer_1" xmlns="http://www.w3.org/2000/svg" xmlns:xlink="http://www.w3.org/1999/xlink" x="0px" y="0px"
	viewBox="0 0 37 37" enable-background="new 0 0 37 37" xml:space="preserve">
<g>
	<g>
		<path fill="#040000" d="M35,33H2c-0.828,0-1.5,0.672-1.5,1.5S1.172,36,2,36h33c0.828,0,1.5-0.672,1.5-1.5S35.828,33,35,33z M2,4
			h33c0.828,0,1.5-0.671,1.5-1.5C36.5,1.672,35.828,1,35,1H2C1.172,1,0.5,1.672,0.5,2.5C0.5,3.329,1.172,4,2,4z M35,17H2
			c-0.828,0-1.5,0.672-1.5,1.5S1.172,20,2,20h33c0.828,0,1.5-0.672,1.5-1.5S35.828,17,35,17z"/>
	</g>
	<g>
		<path fill="none" stroke="#040000" stroke-miterlimit="10" d="M35,33H2c-0.828,0-1.5,0.672-1.5,1.5S1.172,36,2,36h33
			c0.828,0,1.5-0.672,1.5-1.5S35.828,33,35,33z M2,4h33c0.828,0,1.5-0.671,1.5-1.5C36.5,1.672,35.828,1,35,1H2
			C1.172,1,0.5,1.672,0.5,2.5C0.5,3.329,1.172,4,2,4z M35,17H2c-0.828,0-1.5,0.672-1.5,1.5S1.172,20,2,20h33
			c0.828,0,1.5-0.672,1.5-1.5S35.828,17,35,17z"/>
	</g>
</g>
</svg>
