<?xml version="1.0" encoding="utf-8"?>
<!-- Generator: Adobe Illustrator 16.0.0, SVG Export Plug-In . SVG Version: 6.00 Build 0)  -->
<!DOCTYPE svg PUBLIC "-//W3C//DTD SVG 1.1//EN" "http://www.w3.org/Graphics/SVG/1.1/DTD/svg11.dtd">
<svg version="1.1" id="Layer_1" xmlns="http://www.w3.org/2000/svg" xmlns:xlink="http://www.w3.org/1999/xlink" x="0px" y="0px"
	viewBox="0 0 57 59" enable-background="new 0 0 57 59" xml:space="preserve">
<path fill="none" stroke="#FFFFFF" stroke-miterlimit="10" d="M21.064,52.193c-2.707-0.857-7.604,2.51-9.835,0.898
	c-2.273-1.634-0.537-7.289-2.17-9.534c-1.632-2.204-7.625-2.327-8.492-4.981c-0.847-2.572,3.905-6.124,3.905-8.961
	s-4.752-6.39-3.905-8.961c0.868-2.654,6.86-2.756,8.492-4.981c1.653-2.225-0.083-7.88,2.17-9.513
	c2.252-1.613,7.149,1.755,9.835,0.898c2.583-0.837,4.545-6.43,7.418-6.43c2.872,0,4.835,5.593,7.418,6.43
	c2.707,0.857,7.604-2.511,9.835-0.898c2.272,1.612,0.537,7.268,2.19,9.513c1.633,2.205,7.625,2.327,8.492,4.981
	c0.848,2.572-3.905,6.124-3.905,8.961s4.753,6.411,3.905,8.961c-0.867,2.675-6.859,2.777-8.492,5.002
	c-1.653,2.225,0.082,7.88-2.17,9.514c-2.252,1.611-7.148-1.756-9.835-0.898c-2.604,0.836-4.566,6.43-7.438,6.43
	C25.61,58.623,23.647,53.029,21.064,52.193z"/>
<g>
	<g>
		<path fill="#FFFFFF" d="M20.853,30.51l-3.759-6.015H15.29v9.007h1.723v-5.874l3.702,5.874h1.861v-9.007h-1.723V30.51z
			 M26.391,29.533h4.611v-1.518h-4.611v-1.997h4.955v-1.524h-6.809v9.007h6.985v-1.518h-5.131V29.533z M42.391,24.495l-1.409,6.292
			l-1.61-6.292h-2.205l-1.679,6.187l-1.385-6.187h-1.897l2.192,9.007h2.011l1.823-6.734l1.829,6.734h1.967l2.23-9.007H42.391z"/>
	</g>
	<g>
		<path fill="none" stroke="#FFFFFF" stroke-miterlimit="10" d="M20.853,30.51l-3.759-6.015H15.29v9.007h1.723v-5.874l3.702,5.874
			h1.861v-9.007h-1.723V30.51z M26.391,29.533h4.611v-1.518h-4.611v-1.997h4.955v-1.524h-6.809v9.007h6.985v-1.518h-5.131V29.533z
			 M42.391,24.495l-1.409,6.292l-1.61-6.292h-2.205l-1.679,6.187l-1.385-6.187h-1.897l2.192,9.007h2.011l1.823-6.734l1.829,6.734
			h1.967l2.23-9.007H42.391z"/>
	</g>
</g>
</svg>
