<?xml version="1.0" encoding="utf-8"?>
<!-- Generator: Adobe Illustrator 16.0.0, SVG Export Plug-In . SVG Version: 6.00 Build 0)  -->
<!DOCTYPE svg PUBLIC "-//W3C//DTD SVG 1.1//EN" "http://www.w3.org/Graphics/SVG/1.1/DTD/svg11.dtd">
<svg version="1.1" id="Layer_1" xmlns="http://www.w3.org/2000/svg" xmlns:xlink="http://www.w3.org/1999/xlink" x="0px" y="0px"
	 viewBox="0 0 165 50" enable-background="new 0 0 165 50" xml:space="preserve">
<g>
	<g>
		<path fill="black" d="M14.316,6.513H1.484V43.42h6.592V29.598h6.694c7.648,0,12.53-4.049,12.53-11.745
			C27.301,10.512,22.973,6.513,14.316,6.513z M13.563,24.637H8.076V11.626h5.587c4.83,0,6.743,1.772,6.743,6.632
			C20.406,22.562,18.493,24.637,13.563,24.637z M51.711,30.104c0,6.784-2.465,8.961-7.699,8.961c-5.285,0-8.002-2.228-8.002-8.961
			V6.513h-6.693V30.51c0,9.112,5.133,13.567,14.444,13.567c9.36,0,13.889-4.354,13.889-13.77V6.513h-5.938V30.104z M156.805,6.513
			v15.238h-15.652V6.513h-6.592V43.42h6.592V26.966h15.652V43.42h6.592V6.513H156.805z M114.336,7.126
			c-4.697,0-9.113,1.841-12.435,5.182L83.837,30.48c-1.503,1.512-3.503,2.345-5.628,2.345c-2.127,0-4.126-0.833-5.629-2.345
			c-1.504-1.514-2.332-3.523-2.332-5.663c0-2.139,0.828-4.15,2.332-5.663s3.503-2.345,5.629-2.345c2.125,0,4.124,0.833,5.628,2.345
			l3.346,3.365l6.806-6.847l-3.345-3.365c-3.321-3.342-7.738-5.183-12.435-5.183c-4.698,0-9.114,1.841-12.436,5.182
			s-5.15,7.783-5.15,12.509c0,4.726,1.829,9.167,5.15,12.51c3.322,3.341,7.738,5.182,12.436,5.182c4.696,0,9.113-1.841,12.435-5.182
			l18.063-18.172c1.504-1.513,3.504-2.345,5.629-2.345s4.125,0.833,5.629,2.346c1.503,1.512,2.332,3.523,2.332,5.662
			s-0.829,4.149-2.332,5.663c-1.503,1.512-3.502,2.345-5.629,2.345c-2.125,0-4.125-0.833-5.628-2.345l-3.305-3.324l-6.806,6.848
			l3.304,3.323c3.321,3.341,7.737,5.182,12.435,5.182s9.113-1.841,12.435-5.182c3.321-3.343,5.15-7.784,5.15-12.51
			c0-4.725-1.829-9.167-5.15-12.509C123.45,8.967,119.034,7.126,114.336,7.126z"/>
	</g>
	<g>
		<path fill="none" stroke="black" stroke-miterlimit="10" d="M14.316,6.513H1.484V43.42h6.592V29.598h6.694
			c7.648,0,12.53-4.049,12.53-11.745C27.301,10.512,22.973,6.513,14.316,6.513z M13.563,24.637H8.076V11.626h5.587
			c4.83,0,6.743,1.772,6.743,6.632C20.406,22.562,18.493,24.637,13.563,24.637z M51.711,30.104c0,6.784-2.465,8.961-7.699,8.961
			c-5.285,0-8.002-2.228-8.002-8.961V6.513h-6.693V30.51c0,9.112,5.133,13.567,14.444,13.567c9.36,0,13.889-4.354,13.889-13.77
			V6.513h-5.938V30.104z M156.805,6.513v15.238h-15.652V6.513h-6.592V43.42h6.592V26.966h15.652V43.42h6.592V6.513H156.805z
			 M114.336,7.126c-4.697,0-9.113,1.841-12.435,5.182L83.837,30.48c-1.503,1.512-3.503,2.345-5.628,2.345
			c-2.127,0-4.126-0.833-5.629-2.345c-1.504-1.514-2.332-3.523-2.332-5.663c0-2.139,0.828-4.15,2.332-5.663s3.503-2.345,5.629-2.345
			c2.125,0,4.124,0.833,5.628,2.345l3.346,3.365l6.806-6.847l-3.345-3.365c-3.321-3.342-7.738-5.183-12.435-5.183
			c-4.698,0-9.114,1.841-12.436,5.182s-5.15,7.783-5.15,12.509c0,4.726,1.829,9.167,5.15,12.51
			c3.322,3.341,7.738,5.182,12.436,5.182c4.696,0,9.113-1.841,12.435-5.182l18.063-18.172c1.504-1.513,3.504-2.345,5.629-2.345
			s4.125,0.833,5.629,2.346c1.503,1.512,2.332,3.523,2.332,5.662s-0.829,4.149-2.332,5.663c-1.503,1.512-3.502,2.345-5.629,2.345
			c-2.125,0-4.125-0.833-5.628-2.345l-3.305-3.324l-6.806,6.848l3.304,3.323c3.321,3.341,7.737,5.182,12.435,5.182
			s9.113-1.841,12.435-5.182c3.321-3.343,5.15-7.784,5.15-12.51c0-4.725-1.829-9.167-5.15-12.509
			C123.45,8.967,119.034,7.126,114.336,7.126z"/>
	</g>
</g>
</svg>
