<?xml version="1.0" encoding="utf-8"?>
<!-- Generator: Adobe Illustrator 16.0.0, SVG Export Plug-In . SVG Version: 6.00 Build 0)  -->
<!DOCTYPE svg PUBLIC "-//W3C//DTD SVG 1.1//EN" "http://www.w3.org/Graphics/SVG/1.1/DTD/svg11.dtd">
<svg version="1.1" id="Layer_1" xmlns="http://www.w3.org/2000/svg" xmlns:xlink="http://www.w3.org/1999/xlink" x="0px" y="0px"
	 viewBox="0 0 45 45" enable-background="new 0 0 45 45" xml:space="preserve">
<g>
	<g>
		<path fill="#FFFFFF" d="M17.563,1.063c-8.837,0-16,7.163-16,16s7.163,16,16,16s16-7.163,16-16S26.399,1.063,17.563,1.063z
			 M17.563,31.063c-7.732,0-14-6.268-14-14c0-7.731,6.268-14,14-14s14,6.269,14,14C31.563,24.795,25.295,31.063,17.563,31.063z
			 M42.793,40.879L30.964,29.05c-0.445,0.497-0.917,0.969-1.414,1.414l11.829,11.829c0.391,0.391,1.023,0.391,1.414,0
			S43.184,41.27,42.793,40.879z"/>
	</g>
	<g>
		<path fill="none" stroke="#FFFFFF" stroke-miterlimit="10" d="M17.563,1.063c-8.837,0-16,7.163-16,16s7.163,16,16,16
			s16-7.163,16-16S26.399,1.063,17.563,1.063z M17.563,31.063c-7.732,0-14-6.268-14-14c0-7.731,6.268-14,14-14s14,6.269,14,14
			C31.563,24.795,25.295,31.063,17.563,31.063z M42.793,40.879L30.964,29.05c-0.445,0.497-0.917,0.969-1.414,1.414l11.829,11.829
			c0.391,0.391,1.023,0.391,1.414,0S43.184,41.27,42.793,40.879z"/>
	</g>
</g>
</svg>
