<?xml version="1.0" encoding="utf-8"?>
<!-- Generator: Adobe Illustrator 16.0.0, SVG Export Plug-In . SVG Version: 6.00 Build 0)  -->
<!DOCTYPE svg PUBLIC "-//W3C//DTD SVG 1.1//EN" "http://www.w3.org/Graphics/SVG/1.1/DTD/svg11.dtd">
<svg version="1.1" id="Layer_1" xmlns="http://www.w3.org/2000/svg" xmlns:xlink="http://www.w3.org/1999/xlink" x="0px" y="0px"
	viewBox="0 0 21 21" enable-background="new 0 0 21 21" xml:space="preserve">
<g>
	<g>
		<path fill="#FFFFFF" d="M17.504,14.672c-1.036,0-1.932,0.566-2.42,1.401l-8.921-4.696C6.255,11.1,6.317,10.809,6.317,10.5
			c0-0.219-0.031-0.43-0.079-0.635l8.976-4.725c0.51,0.717,1.344,1.188,2.29,1.188c1.553,0,2.813-1.259,2.813-2.813
			s-1.26-2.813-2.813-2.813s-2.813,1.259-2.813,2.813c0,0.373,0.076,0.727,0.208,1.052L6.008,9.247
			C5.548,8.335,4.612,7.703,3.52,7.703c-1.545,0-2.797,1.252-2.797,2.797s1.252,2.797,2.797,2.797c1.003,0,1.876-0.532,2.37-1.325
			l8.935,4.702c-0.078,0.259-0.133,0.526-0.133,0.811c0,1.554,1.26,2.813,2.813,2.813s2.813-1.259,2.813-2.813
			S19.057,14.672,17.504,14.672z"/>
	</g>
	<g>
		<path fill="none" stroke="#FFFFFF" stroke-miterlimit="10" d="M17.504,14.672c-1.036,0-1.932,0.566-2.42,1.401l-8.921-4.696
			C6.255,11.1,6.317,10.809,6.317,10.5c0-0.219-0.031-0.43-0.079-0.635l8.976-4.725c0.51,0.717,1.344,1.188,2.29,1.188
			c1.553,0,2.813-1.259,2.813-2.813s-1.26-2.813-2.813-2.813s-2.813,1.259-2.813,2.813c0,0.373,0.076,0.727,0.208,1.052L6.008,9.247
			C5.548,8.335,4.612,7.703,3.52,7.703c-1.545,0-2.797,1.252-2.797,2.797s1.252,2.797,2.797,2.797c1.003,0,1.876-0.532,2.37-1.325
			l8.935,4.702c-0.078,0.259-0.133,0.526-0.133,0.811c0,1.554,1.26,2.813,2.813,2.813s2.813-1.259,2.813-2.813
			S19.057,14.672,17.504,14.672z"/>
	</g>
</g>
</svg>
