<?xml version="1.0" encoding="utf-8"?>
<!-- Generator: Adobe Illustrator 16.0.0, SVG Export Plug-In . SVG Version: 6.00 Build 0)  -->
<!DOCTYPE svg PUBLIC "-//W3C//DTD SVG 1.1//EN" "http://www.w3.org/Graphics/SVG/1.1/DTD/svg11.dtd">
<svg version="1.1" id="Layer_1" xmlns="http://www.w3.org/2000/svg" xmlns:xlink="http://www.w3.org/1999/xlink" x="0px" y="0px"
	viewBox="0 0 22 22" enable-background="new 0 0 22 22" xml:space="preserve">
<path fill="#FFFFFF" stroke="#FFFFFF" stroke-miterlimit="10" d="M1.561,8.5h1c0.553,0,1,0.448,1,1v4c0,0.553-0.447,1-1,1h-1
	c-0.553,0-1-0.447-1-1v-4C0.561,8.948,1.008,8.5,1.561,8.5z"/>
<g>
	<g>
		<path fill="#FFFFFF" d="M14.698,2.291c-0.388-0.388-1.017-0.388-1.404,0L5.641,7.082C5.543,7.121,5.459,7.181,5.379,7.246
			L5.271,7.313C5.047,7.538,4.968,7.842,5.004,8.135v5.874c0,0.553,0.447,1,1,1s1-0.447,1-1V8.512l7.694-4.816
			C15.086,3.308,15.086,2.679,14.698,2.291z"/>
	</g>
	<g>
		<path fill="none" stroke="#FFFFFF" stroke-miterlimit="10" d="M14.698,2.291c-0.388-0.388-1.017-0.388-1.404,0L5.641,7.082
			C5.543,7.121,5.459,7.181,5.379,7.246L5.271,7.313C5.047,7.538,4.968,7.842,5.004,8.135v5.874c0,0.553,0.447,1,1,1s1-0.447,1-1
			V8.512l7.694-4.816C15.086,3.308,15.086,2.679,14.698,2.291z"/>
	</g>
</g>
<g>
	<g>
		<path fill="#FFFFFF" d="M14.004,2.5c-0.553,0-1,0.448-1,1v14.253l-6-3.757V10.5c0-0.552-0.447-1-1-1s-1,0.448-1,1v3.874
			c-0.036,0.293,0.043,0.597,0.268,0.821l0.104,0.065c0.081,0.066,0.166,0.127,0.266,0.166l7.652,4.791
			c0.297,0.297,0.733,0.362,1.097,0.204c0.048-0.02,0.084-0.058,0.128-0.085c0.061-0.038,0.127-0.066,0.18-0.119
			c0.001-0.001,0.001-0.002,0.002-0.003c0.187-0.182,0.304-0.434,0.304-0.715v-16C15.004,2.948,14.557,2.5,14.004,2.5z"/>
	</g>
	<g>
		<path fill="none" stroke="#FFFFFF" stroke-miterlimit="10" d="M14.004,2.5c-0.553,0-1,0.448-1,1v14.253l-6-3.757V10.5
			c0-0.552-0.447-1-1-1s-1,0.448-1,1v3.874c-0.036,0.293,0.043,0.597,0.268,0.821l0.104,0.065c0.081,0.066,0.166,0.127,0.266,0.166
			l7.652,4.791c0.297,0.297,0.733,0.362,1.097,0.204c0.048-0.02,0.084-0.058,0.128-0.085c0.061-0.038,0.127-0.066,0.18-0.119
			c0.001-0.001,0.001-0.002,0.002-0.003c0.187-0.182,0.304-0.434,0.304-0.715v-16C15.004,2.948,14.557,2.5,14.004,2.5z"/>
	</g>
</g>
<g>
	<g>
		<path fill="#FFFFFF" d="M18.385,7.513l2.238-1.293c0.479-0.276,0.643-0.888,0.366-1.366c-0.275-0.478-0.888-0.642-1.366-0.366
			L17.385,5.78c-0.479,0.276-0.643,0.888-0.366,1.366C17.294,7.625,17.906,7.789,18.385,7.513z M20.504,10.5h-3
			c-0.553,0-1,0.448-1,1c0,0.553,0.447,1,1,1h3c0.553,0,1-0.447,1-1C21.504,10.948,21.057,10.5,20.504,10.5z M20.623,16.78
			l-2.238-1.293c-0.479-0.276-1.091-0.112-1.366,0.366c-0.276,0.479-0.112,1.09,0.366,1.366l2.238,1.293
			c0.479,0.276,1.091,0.112,1.366-0.366C21.266,17.668,21.102,17.057,20.623,16.78z"/>
	</g>
	<g>
		<path fill="none" stroke="#FFFFFF" stroke-miterlimit="10" d="M18.385,7.513l2.238-1.293c0.479-0.276,0.643-0.888,0.366-1.366
			c-0.275-0.478-0.888-0.642-1.366-0.366L17.385,5.78c-0.479,0.276-0.643,0.888-0.366,1.366C17.294,7.625,17.906,7.789,18.385,7.513
			z M20.504,10.5h-3c-0.553,0-1,0.448-1,1c0,0.553,0.447,1,1,1h3c0.553,0,1-0.447,1-1C21.504,10.948,21.057,10.5,20.504,10.5z
			 M20.623,16.78l-2.238-1.293c-0.479-0.276-1.091-0.112-1.366,0.366c-0.276,0.479-0.112,1.09,0.366,1.366l2.238,1.293
			c0.479,0.276,1.091,0.112,1.366-0.366C21.266,17.668,21.102,17.057,20.623,16.78z"/>
	</g>
</g>
</svg>
