<?xml version="1.0" encoding="utf-8"?>
<!-- Generator: Adobe Illustrator 16.0.0, SVG Export Plug-In . SVG Version: 6.00 Build 0)  -->
<!DOCTYPE svg PUBLIC "-//W3C//DTD SVG 1.1//EN" "http://www.w3.org/Graphics/SVG/1.1/DTD/svg11.dtd">
<svg version="1.1" xmlns="http://www.w3.org/2000/svg" xmlns:xlink="http://www.w3.org/1999/xlink" x="0px" y="0px"
	viewBox="0 0 83 83" enable-background="new 0 0 83 83" xml:space="preserve">
<g id="Layer_1">
	<path fill="none" stroke="#E98113" stroke-miterlimit="10" d="M41.5,1c22.092,0,40,17.909,40,40c0,22.092-17.908,40-40,40
		c-22.091,0-40-17.908-40-40C1.5,18.909,19.409,1,41.5,1z"/>
	<g>
		<polygon fill="none" points="56.5,40 42.5,40 42.5,26 40.5,26 40.5,40 26.5,40 26.5,42 40.5,42 40.5,56 42.5,56 42.5,42 56.5,42 
					"/>
	</g>
	<g>
		<polygon fill="none" points="56.5,40 42.5,40 42.5,26 40.5,26 40.5,40 26.5,40 26.5,42 40.5,42 40.5,56 42.5,56 42.5,42 56.5,42 
					"/>
	</g>
</g>
<g id="Layer_2">
	<g>
		<g>
			<polygon fill-rule="evenodd" clip-rule="evenodd" fill="#E98113" points="56.5,40 42.5,40 42.5,26 40.5,26 40.5,40 26.5,40 
				26.5,42 40.5,42 40.5,56 42.5,56 42.5,42 56.5,42 			"/>
		</g>
		<g>
			<polygon fill="none" stroke="#E98113" stroke-miterlimit="10" points="56.5,40 42.5,40 42.5,26 40.5,26 40.5,40 26.5,40 26.5,42 
				40.5,42 40.5,56 42.5,56 42.5,42 56.5,42 			"/>
		</g>
	</g>
</g>
</svg>
