<svg width="88" height="39" viewBox="0 0 88 39" fill="none" xmlns="http://www.w3.org/2000/svg">
<g filter="url(#filter0_d)">
<rect x="5" y="1" width="78" height="29" rx="4" fill="#0A0928" stroke="url(#paint0_linear)" stroke-width="2"/>
<path d="M41.0016 17.17C40.3116 17.17 39.8516 16.44 39.8516 15.07C39.8516 13.71 40.3116 12.98 41.0016 12.98C41.6816 12.98 42.1516 13.71 42.1516 15.07C42.1516 16.44 41.6816 17.17 41.0016 17.17ZM41.0016 11.79C39.6016 11.79 38.5816 13.05 38.5816 15.07C38.5816 17.1 39.6016 18.37 41.0016 18.37C42.3916 18.37 43.4216 17.1 43.4216 15.07C43.4216 13.05 42.3916 11.79 41.0016 11.79ZM47.0816 14.62H45.7416V11.15H44.4216V20.36H45.7416V15.71H47.0816V14.62ZM49.5408 15.51H52.5008V14.48H49.5408V12.98H52.8808V11.91H48.2208V18.28H49.0208C50.6708 18.28 51.9608 18.24 53.4008 18.02L53.2808 16.97C52.0208 17.16 50.9108 17.21 49.5408 17.22V15.51ZM54.0708 11.15V20.37H55.4008V11.15H54.0708ZM64.98 15.48C62.9 15.13 61.76 13.7 61.76 12.35V11.69H60.35V12.35C60.35 13.67 59.2 15.13 57.13 15.48L57.69 16.59C59.29 16.28 60.46 15.38 61.05 14.21C61.64 15.38 62.82 16.27 64.42 16.59L64.98 15.48ZM56.93 18.17V19.24H65.27V18.17H56.93ZM73.5792 15.9H68.4492V14.87H73.2992V13.85H68.4492V12.88H73.5092V11.82H67.1092V16.94H73.5792V15.9ZM66.1292 18.23V19.3H74.4692V18.23H66.1292Z" fill="#AE46E7"/>
<path d="M31.1215 21.3969C30.6794 20.3496 30.0378 19.3984 29.2325 18.5961C28.4296 17.7915 27.4785 17.15 26.4317 16.707C26.4223 16.7023 26.4129 16.7 26.4036 16.6953C27.8637 15.6406 28.8129 13.9227 28.8129 11.9844C28.8129 8.77344 26.2114 6.17188 23.0004 6.17188C19.7895 6.17188 17.1879 8.77344 17.1879 11.9844C17.1879 13.9227 18.1371 15.6406 19.5973 16.6977C19.5879 16.7023 19.5786 16.7047 19.5692 16.7094C18.5192 17.1523 17.577 17.7875 16.7684 18.5984C15.9638 19.4013 15.3223 20.3524 14.8793 21.3992C14.4441 22.424 14.2094 23.5228 14.1879 24.6359C14.1873 24.661 14.1917 24.6858 14.2008 24.7091C14.21 24.7324 14.2237 24.7537 14.2412 24.7716C14.2586 24.7895 14.2795 24.8037 14.3026 24.8134C14.3256 24.8231 14.3504 24.8281 14.3754 24.8281H15.7817C15.8848 24.8281 15.9668 24.7461 15.9692 24.6453C16.016 22.8359 16.7426 21.1414 18.027 19.857C19.3559 18.5281 21.1207 17.7969 23.0004 17.7969C24.8801 17.7969 26.645 18.5281 27.9739 19.857C29.2582 21.1414 29.9848 22.8359 30.0317 24.6453C30.034 24.7484 30.1161 24.8281 30.2192 24.8281H31.6254C31.6504 24.8281 31.6752 24.8231 31.6983 24.8134C31.7213 24.8037 31.7422 24.7895 31.7597 24.7716C31.7772 24.7537 31.7909 24.7324 31.8 24.7091C31.8092 24.6858 31.8136 24.661 31.8129 24.6359C31.7895 23.5156 31.5575 22.4258 31.1215 21.3969ZM23.0004 16.0156C21.9246 16.0156 20.9121 15.5961 20.1504 14.8344C19.3887 14.0727 18.9692 13.0602 18.9692 11.9844C18.9692 10.9086 19.3887 9.89609 20.1504 9.13437C20.9121 8.37266 21.9246 7.95312 23.0004 7.95312C24.0762 7.95312 25.0887 8.37266 25.8504 9.13437C26.6121 9.89609 27.0317 10.9086 27.0317 11.9844C27.0317 13.0602 26.6121 14.0727 25.8504 14.8344C25.0887 15.5961 24.0762 16.0156 23.0004 16.0156Z" fill="url(#paint1_linear)"/>
</g>
<defs>
<filter id="filter0_d" x="0" y="0" width="88" height="39" filterUnits="userSpaceOnUse" color-interpolation-filters="sRGB">
<feFlood flood-opacity="0" result="BackgroundImageFix"/>
<feColorMatrix in="SourceAlpha" type="matrix" values="0 0 0 0 0 0 0 0 0 0 0 0 0 0 0 0 0 0 127 0"/>
<feOffset dy="4"/>
<feGaussianBlur stdDeviation="2"/>
<feColorMatrix type="matrix" values="0 0 0 0 0 0 0 0 0 0 0 0 0 0 0 0 0 0 0.25 0"/>
<feBlend mode="normal" in2="BackgroundImageFix" result="effect1_dropShadow"/>
<feBlend mode="normal" in="SourceGraphic" in2="effect1_dropShadow" result="shape"/>
</filter>
<linearGradient id="paint0_linear" x1="4" y1="14.1947" x2="83.9499" y2="16.3666" gradientUnits="userSpaceOnUse">
<stop stop-color="#00F1B4"/>
<stop offset="1" stop-color="#D53CF5"/>
</linearGradient>
<linearGradient id="paint1_linear" x1="14.1879" y1="14.7145" x2="31.8132" y2="14.8897" gradientUnits="userSpaceOnUse">
<stop stop-color="#00F1B4"/>
<stop offset="1" stop-color="#D53CF5"/>
</linearGradient>
</defs>
</svg>
