<svg viewBox="0 0 25 19" fill="none" xmlns="http://www.w3.org/2000/svg">
<path d="M23.625 1.75H19.25V0.21875C19.25 0.0984375 19.1516 0 19.0312 0H17.5C17.3797 0 17.2812 0.0984375 17.2812 0.21875V1.75H13.2344V0.21875C13.2344 0.0984375 13.1359 0 13.0156 0H11.4844C11.3641 0 11.2656 0.0984375 11.2656 0.21875V1.75H7.21875V0.21875C7.21875 0.0984375 7.12031 0 7 0H5.46875C5.34844 0 5.25 0.0984375 5.25 0.21875V1.75H0.875C0.391016 1.75 0 2.14102 0 2.625V18.375C0 18.859 0.391016 19.25 0.875 19.25H23.625C24.109 19.25 24.5 18.859 24.5 18.375V2.625C24.5 2.14102 24.109 1.75 23.625 1.75ZM22.5312 17.2812H1.96875V3.71875H5.25V5.25C5.25 5.37031 5.34844 5.46875 5.46875 5.46875H7C7.12031 5.46875 7.21875 5.37031 7.21875 5.25V3.71875H11.2656V5.25C11.2656 5.37031 11.3641 5.46875 11.4844 5.46875H13.0156C13.1359 5.46875 13.2344 5.37031 13.2344 5.25V3.71875H17.2812V5.25C17.2812 5.37031 17.3797 5.46875 17.5 5.46875H19.0312C19.1516 5.46875 19.25 5.37031 19.25 5.25V3.71875H22.5312V17.2812ZM9.625 9.1875H4.59375C4.47344 9.1875 4.375 9.28594 4.375 9.40625V10.7188C4.375 10.8391 4.47344 10.9375 4.59375 10.9375H9.625C9.74531 10.9375 9.84375 10.8391 9.84375 10.7188V9.40625C9.84375 9.28594 9.74531 9.1875 9.625 9.1875ZM9.625 12.9062H4.59375C4.47344 12.9062 4.375 13.0047 4.375 13.125V14.4375C4.375 14.5578 4.47344 14.6562 4.59375 14.6562H9.625C9.74531 14.6562 9.84375 14.5578 9.84375 14.4375V13.125C9.84375 13.0047 9.74531 12.9062 9.625 12.9062ZM18.0523 8.05547L15.2195 11.9848L13.7758 9.98594C13.6937 9.87109 13.5625 9.80547 13.423 9.80547H11.9219C11.7441 9.80547 11.6402 10.0078 11.7441 10.1527L14.8641 14.4785C14.9043 14.5344 14.9573 14.5799 15.0187 14.6113C15.08 14.6427 15.1479 14.6591 15.2168 14.6591C15.2857 14.6591 15.3536 14.6427 15.4149 14.6113C15.4763 14.5799 15.5293 14.5344 15.5695 14.4785L20.0813 8.225C20.1852 8.08008 20.0813 7.87773 19.9035 7.87773H18.4023C18.2656 7.875 18.1344 7.94336 18.0523 8.05547Z" fill="#696C8C"/>
</svg>
