<svg width="7" height="5" viewBox="0 0 7 5" fill="none" xmlns="http://www.w3.org/2000/svg">
<path d="M2.34427 4.63428C2.38739 4.69446 2.44423 4.74349 2.51008 4.77732C2.57593 4.81115 2.6489 4.8288 2.72293 4.8288C2.79697 4.8288 2.86993 4.81115 2.93579 4.77732C3.00164 4.74349 3.05848 4.69446 3.1016 4.63428L6.18656 0.356934C6.24222 0.279297 6.18656 0.170898 6.09134 0.170898H5.40433C5.25492 0.170898 5.11283 0.242676 5.02494 0.365722L2.72367 3.55908L1.6807 2.11182C1.59281 1.99023 1.45218 1.91699 1.3013 1.91699H0.614291C0.519076 1.91699 0.463412 2.02539 0.519076 2.10303L2.34427 4.63428Z" fill="#F38400"/>
</svg>
