<svg width="21" height="21" viewBox="0 0 21 21" fill="none" xmlns="http://www.w3.org/2000/svg">
<path d="M14.3951 6.96875C14.3951 6.86992 14.3142 6.78906 14.2154 6.78906L12.733 6.7958L10.5003 9.45742L8.26999 6.79805L6.78532 6.79131C6.6865 6.79131 6.60564 6.86992 6.60564 6.971C6.60564 7.01367 6.62136 7.0541 6.64831 7.08779L9.57047 10.5692L6.64831 14.0484C6.62117 14.0814 6.60611 14.1226 6.60564 14.1652C6.60564 14.2641 6.6865 14.3449 6.78532 14.3449L8.26999 14.3382L10.5003 11.6766L12.7307 14.3359L14.2131 14.3427C14.312 14.3427 14.3928 14.2641 14.3928 14.163C14.3928 14.1203 14.3771 14.0799 14.3501 14.0462L11.4325 10.567L14.3546 7.08555C14.3816 7.0541 14.3951 7.01143 14.3951 6.96875Z" fill="#9A9A9A"/>
<path d="M10.5 0.459961C4.94316 0.459961 0.4375 4.96563 0.4375 10.5225C0.4375 16.0793 4.94316 20.585 10.5 20.585C16.0568 20.585 20.5625 16.0793 20.5625 10.5225C20.5625 4.96563 16.0568 0.459961 10.5 0.459961ZM10.5 18.8779C5.88652 18.8779 2.14453 15.1359 2.14453 10.5225C2.14453 5.90898 5.88652 2.16699 10.5 2.16699C15.1135 2.16699 18.8555 5.90898 18.8555 10.5225C18.8555 15.1359 15.1135 18.8779 10.5 18.8779Z" fill="#9A9A9A"/>
</svg>
