<svg width="14" height="14" viewBox="0 0 14 14" fill="none" xmlns="http://www.w3.org/2000/svg">
<path d="M7 0.875C3.61758 0.875 0.875 3.61758 0.875 7C0.875 10.3824 3.61758 13.125 7 13.125C10.3824 13.125 13.125 10.3824 13.125 7C13.125 3.61758 10.3824 0.875 7 0.875ZM7 10.5547C6.69785 10.5547 6.45312 10.31 6.45312 10.0078C6.45312 9.70566 6.69785 9.46094 7 9.46094C7.30215 9.46094 7.54688 9.70566 7.54688 10.0078C7.54688 10.31 7.30215 10.5547 7 10.5547ZM7.85996 7.55371C7.73615 7.60152 7.62961 7.68554 7.55425 7.7948C7.47889 7.90405 7.43821 8.03349 7.4375 8.16621V8.47656C7.4375 8.53672 7.38828 8.58594 7.32812 8.58594H6.67188C6.61172 8.58594 6.5625 8.53672 6.5625 8.47656V8.18262C6.5625 7.8668 6.6541 7.55508 6.83457 7.29531C7.01094 7.04102 7.25703 6.84688 7.54688 6.73613C8.01172 6.55703 8.3125 6.16738 8.3125 5.74219C8.3125 5.13926 7.72324 4.64844 7 4.64844C6.27676 4.64844 5.6875 5.13926 5.6875 5.74219V5.84609C5.6875 5.90625 5.63828 5.95547 5.57812 5.95547H4.92188C4.86172 5.95547 4.8125 5.90625 4.8125 5.84609V5.74219C4.8125 5.20488 5.04766 4.70313 5.47422 4.32988C5.88438 3.97031 6.42578 3.77344 7 3.77344C7.57422 3.77344 8.11562 3.97168 8.52578 4.32988C8.95234 4.70313 9.1875 5.20488 9.1875 5.74219C9.1875 6.53242 8.6666 7.24336 7.85996 7.55371Z" fill="white"/>
</svg>
