<?xml version="1.0" encoding="utf-8"?>
<!-- Generator: Adobe Illustrator 16.0.0, SVG Export Plug-In . SVG Version: 6.00 Build 0)  -->
<!DOCTYPE svg PUBLIC "-//W3C//DTD SVG 1.1//EN" "http://www.w3.org/Graphics/SVG/1.1/DTD/svg11.dtd">
<svg version="1.1" id="Layer_1" xmlns="http://www.w3.org/2000/svg" xmlns:xlink="http://www.w3.org/1999/xlink" x="0px" y="0px"
	viewBox="0 0 32 32" enable-background="new 0 0 32 32" xml:space="preserve">
<g>
	<g>
		<path fill="#000000" d="M18.121,16.016L30.743,3.394c0.586-0.586,0.586-1.536,0-2.122c-0.585-0.585-1.535-0.585-2.121,0L16,13.895
			L3.378,1.272c-0.586-0.585-1.536-0.585-2.121,0c-0.586,0.586-0.586,1.536,0,2.122l12.622,12.622L1.288,28.607
			c-0.586,0.586-0.586,1.535,0,2.121c0.585,0.586,1.535,0.586,2.121,0L16,18.138l12.591,12.591c0.586,0.586,1.536,0.586,2.121,0
			c0.586-0.586,0.586-1.535,0-2.121L18.121,16.016z"/>
	</g>
	<g>
		<path fill="none" stroke="#000000" stroke-miterlimit="10" d="M18.121,16.016L30.743,3.394c0.586-0.586,0.586-1.536,0-2.122
			c-0.585-0.585-1.535-0.585-2.121,0L16,13.895L3.378,1.272c-0.586-0.585-1.536-0.585-2.121,0c-0.586,0.586-0.586,1.536,0,2.122
			l12.622,12.622L1.288,28.607c-0.586,0.586-0.586,1.535,0,2.121c0.585,0.586,1.535,0.586,2.121,0L16,18.138l12.591,12.591
			c0.586,0.586,1.536,0.586,2.121,0c0.586-0.586,0.586-1.535,0-2.121L18.121,16.016z"/>
	</g>
</g>
</svg>
