<?xml version="1.0" encoding="utf-8"?>
<!-- Generator: Adobe Illustrator 16.0.0, SVG Export Plug-In . SVG Version: 6.00 Build 0)  -->
<!DOCTYPE svg PUBLIC "-//W3C//DTD SVG 1.1//EN" "http://www.w3.org/Graphics/SVG/1.1/DTD/svg11.dtd">
<svg version="1.1" id="Layer_1" xmlns="http://www.w3.org/2000/svg" xmlns:xlink="http://www.w3.org/1999/xlink" x="0px" y="0px"
	 width="58px" height="58px" viewBox="0 0 58 58" enable-background="new 0 0 58 58" xml:space="preserve">
<g>
	<g>
		<path fill="none" stroke="#868691" stroke-miterlimit="10" d="M23.065,0.5H4.424C2.257,0.5,0.5,2.264,0.5,4.439v18.709
			c0,2.175,1.757,3.939,3.924,3.939h18.641c2.167,0,3.924-1.764,3.924-3.939V4.439C26.989,2.264,25.232,0.5,23.065,0.5z M53.479,0.5
			H34.838c-2.167,0-3.924,1.764-3.924,3.939v18.709c0,2.175,1.757,3.939,3.924,3.939h18.641c2.167,0,3.925-1.764,3.925-3.939V4.439
			C57.403,2.264,55.646,0.5,53.479,0.5z M23.065,31.026H4.424c-2.167,0-3.924,1.764-3.924,3.938v18.71
			c0,2.175,1.757,3.938,3.924,3.938h18.641c2.167,0,3.924-1.764,3.924-3.938v-18.71C26.989,32.79,25.232,31.026,23.065,31.026z
			 M53.479,31.026H34.838c-2.167,0-3.924,1.764-3.924,3.938v18.71c0,2.175,1.757,3.938,3.924,3.938h18.641
			c2.167,0,3.925-1.764,3.925-3.938v-18.71C57.403,32.79,55.646,31.026,53.479,31.026z"/>
	</g>
</g>
</svg>
