<?xml version="1.0" encoding="utf-8"?>
<!-- Generator: Adobe Illustrator 16.0.0, SVG Export Plug-In . SVG Version: 6.00 Build 0)  -->
<!DOCTYPE svg PUBLIC "-//W3C//DTD SVG 1.1//EN" "http://www.w3.org/Graphics/SVG/1.1/DTD/svg11.dtd">
<svg version="1.1" id="Layer_1" xmlns="http://www.w3.org/2000/svg" xmlns:xlink="http://www.w3.org/1999/xlink" x="0px" y="0px"
	 width="60px" height="60px" viewBox="0 0 60 60" enable-background="new 0 0 60 60" xml:space="preserve">
<g>
	<g>
		<path fill="none" stroke="#FFFFFF" stroke-width="2" stroke-miterlimit="10" d="M24.094,0.954H5.091c-2.209,0-4,1.798-4,4.016
			v19.074c0,2.217,1.792,4.015,4,4.015h19.003c2.209,0,4-1.798,4-4.015V4.969C28.095,2.751,26.304,0.954,24.094,0.954z
			 M55.099,0.954H36.097c-2.209,0-4.001,1.798-4.001,4.016v19.074c0,2.217,1.792,4.015,4.001,4.015h19.002
			c2.211,0,4.002-1.798,4.002-4.015V4.969C59.101,2.751,57.31,0.954,55.099,0.954z M24.094,32.074H5.091c-2.209,0-4,1.797-4,4.015
			v19.073c0,2.218,1.792,4.016,4,4.016h19.003c2.209,0,4-1.798,4-4.016V36.089C28.095,33.871,26.304,32.074,24.094,32.074z
			 M55.099,32.074H36.097c-2.209,0-4.001,1.797-4.001,4.015v19.073c0,2.218,1.792,4.016,4.001,4.016h19.002
			c2.211,0,4.002-1.798,4.002-4.016V36.089C59.101,33.871,57.31,32.074,55.099,32.074z"/>
	</g>
</g>
</svg>
