<svg width="86" height="85" viewBox="0 0 86 85" fill="none" xmlns="http://www.w3.org/2000/svg">
<path d="M43.1912 5.3125C22.655 5.3125 6.00366 21.9639 6.00366 42.5C6.00366 63.0361 22.655 79.6875 43.1912 79.6875C63.7273 79.6875 80.3787 63.0361 80.3787 42.5C80.3787 21.9639 63.7273 5.3125 43.1912 5.3125ZM43.1912 73.3789C26.1414 73.3789 12.3123 59.5498 12.3123 42.5C12.3123 25.4502 26.1414 11.6211 43.1912 11.6211C60.241 11.6211 74.0701 25.4502 74.0701 42.5C74.0701 59.5498 60.241 73.3789 43.1912 73.3789Z" fill="#FAAD14"/>
<path d="M39.2068 57.1094C39.2068 58.1661 39.6266 59.1795 40.3738 59.9268C41.121 60.674 42.1344 61.0938 43.1912 61.0938C44.2479 61.0938 45.2613 60.674 46.0085 59.9268C46.7558 59.1795 47.1755 58.1661 47.1755 57.1094C47.1755 56.0527 46.7558 55.0392 46.0085 54.292C45.2613 53.5448 44.2479 53.125 43.1912 53.125C42.1344 53.125 41.121 53.5448 40.3738 54.292C39.6266 55.0392 39.2068 56.0527 39.2068 57.1094V57.1094ZM41.199 47.8125H45.1833C45.5486 47.8125 45.8474 47.5137 45.8474 47.1484V24.5703C45.8474 24.2051 45.5486 23.9062 45.1833 23.9062H41.199C40.8337 23.9062 40.5349 24.2051 40.5349 24.5703V47.1484C40.5349 47.5137 40.8337 47.8125 41.199 47.8125Z" fill="#FAAD14"/>
</svg>
