<svg viewBox="0 0 24 24" fill="none" xmlns="http://www.w3.org/2000/svg">
<path d="M12.0111 9.15547C11.3103 9.15547 10.6541 9.42734 10.1572 9.92422C9.66268 10.4211 9.38846 11.0773 9.38846 11.7781C9.38846 12.4789 9.66268 13.1352 10.1572 13.632C10.6541 14.1266 11.3103 14.4008 12.0111 14.4008C12.7119 14.4008 13.3681 14.1266 13.865 13.632C14.3596 13.1352 14.6338 12.4789 14.6338 11.7781C14.6338 11.0773 14.3596 10.4211 13.865 9.92422C13.6223 9.67967 13.3335 9.48577 13.0152 9.3538C12.697 9.22183 12.3557 9.15442 12.0111 9.15547V9.15547ZM21.6744 14.675L20.1416 13.3648C20.2142 12.9195 20.2517 12.4648 20.2517 12.0125C20.2517 11.5602 20.2142 11.1031 20.1416 10.6602L21.6744 9.35C21.7902 9.25088 21.8731 9.11885 21.912 8.97148C21.9509 8.82411 21.9441 8.66838 21.8924 8.525L21.8713 8.46406C21.4494 7.28443 20.8173 6.19099 20.0056 5.23672L19.9635 5.1875C19.8649 5.07161 19.7335 4.9883 19.5867 4.94855C19.4398 4.9088 19.2844 4.91448 19.1408 4.96484L17.2377 5.64219C16.5346 5.06563 15.7517 4.61094 14.9033 4.29453L14.5353 2.30469C14.5076 2.15479 14.4349 2.01688 14.3269 1.90929C14.2188 1.8017 14.0807 1.72952 13.9307 1.70234L13.8674 1.69063C12.6486 1.47031 11.3642 1.47031 10.1455 1.69063L10.0822 1.70234C9.93221 1.72952 9.79402 1.8017 9.68601 1.90929C9.578 2.01688 9.50529 2.15479 9.47753 2.30469L9.10721 4.30391C8.26681 4.62283 7.48392 5.07642 6.78924 5.64688L4.87206 4.96484C4.72854 4.91408 4.57297 4.9082 4.42603 4.94797C4.27909 4.98774 4.14773 5.07128 4.0494 5.1875L4.00721 5.23672C3.19696 6.19201 2.56504 7.28518 2.14159 8.46406L2.12049 8.525C2.01503 8.81797 2.10174 9.14609 2.33846 9.35L3.89003 10.6742C3.81737 11.1148 3.78221 11.5648 3.78221 12.0102C3.78221 12.4602 3.81737 12.9102 3.89003 13.3461L2.34315 14.6703C2.22736 14.7694 2.14449 14.9015 2.10555 15.0488C2.06662 15.1962 2.07346 15.3519 2.12518 15.4953L2.14628 15.5563C2.57049 16.7352 3.19628 17.825 4.0119 18.7836L4.05409 18.8328C4.15265 18.9487 4.28402 19.032 4.43087 19.0718C4.57773 19.1115 4.73318 19.1058 4.87674 19.0555L6.79393 18.3734C7.49237 18.9477 8.27049 19.4023 9.1119 19.7164L9.48221 21.7156C9.50998 21.8655 9.58269 22.0034 9.6907 22.111C9.79871 22.2186 9.93689 22.2908 10.0869 22.318L10.1502 22.3297C11.3809 22.5512 12.6413 22.5512 13.8721 22.3297L13.9353 22.318C14.0853 22.2908 14.2235 22.2186 14.3315 22.111C14.4395 22.0034 14.5123 21.8655 14.54 21.7156L14.908 19.7258C15.7564 19.407 16.5392 18.9547 17.2424 18.3781L19.1455 19.0555C19.289 19.1062 19.4446 19.1121 19.5915 19.0723C19.7385 19.0326 19.8698 18.949 19.9681 18.8328L20.0103 18.7836C20.826 17.8203 21.4517 16.7352 21.876 15.5563L21.8971 15.4953C21.9978 15.2047 21.9111 14.8789 21.6744 14.675ZM12.0111 15.8984C9.73534 15.8984 7.89081 14.0539 7.89081 11.7781C7.89081 9.50234 9.73534 7.65781 12.0111 7.65781C14.2869 7.65781 16.1314 9.50234 16.1314 11.7781C16.1314 14.0539 14.2869 15.8984 12.0111 15.8984Z" fill="#F2F2F2"/>
</svg>
