<svg width="62" height="62" viewBox="0 0 62 62" fill="none" xmlns="http://www.w3.org/2000/svg">
<path d="M28.0913 41.6581C28.0913 42.4288 28.3975 43.168 28.9425 43.7131C29.4876 44.2581 30.2268 44.5643 30.9976 44.5643C31.7683 44.5643 32.5076 44.2581 33.0526 43.7131C33.5976 43.168 33.9038 42.4288 33.9038 41.6581C33.9038 40.8873 33.5976 40.148 33.0526 39.603C32.5076 39.058 31.7683 38.7518 30.9976 38.7518C30.2268 38.7518 29.4876 39.058 28.9425 39.603C28.3975 40.148 28.0913 40.8873 28.0913 41.6581ZM32.4507 34.8768C32.7171 34.8768 32.9351 34.6588 32.9351 34.3924V17.9237C32.9351 17.6573 32.7171 17.4393 32.4507 17.4393H29.5444C29.278 17.4393 29.0601 17.6573 29.0601 17.9237V34.3924C29.0601 34.6588 29.278 34.8768 29.5444 34.8768H32.4507ZM56.6694 23.494H53.079C52.9216 23.494 52.7763 23.5666 52.6854 23.6938L46.2372 32.5821L43.2159 28.4164C43.1711 28.3541 43.112 28.3033 43.0435 28.2686C42.975 28.2338 42.8992 28.216 42.8224 28.2166H39.2319C38.8384 28.2166 38.6083 28.6647 38.8384 28.9856L45.4501 38.11C45.5406 38.2339 45.659 38.3346 45.7958 38.4041C45.9326 38.4735 46.0838 38.5097 46.2372 38.5097C46.3906 38.5097 46.5418 38.4735 46.6786 38.4041C46.8154 38.3346 46.9338 38.2339 47.0243 38.11L57.063 24.2629C57.2931 23.942 57.063 23.494 56.6694 23.494ZM54.0054 42.0213H50.1183C49.7852 42.0213 49.4765 42.1969 49.2948 42.4754C48.4354 43.8408 47.4239 45.1042 46.2796 46.2414C44.3126 48.2098 41.9831 49.7786 39.4196 50.8612C36.762 51.982 33.906 52.5565 31.0218 52.5504C28.1095 52.5504 25.2819 51.9813 22.6239 50.8612C20.0604 49.7786 17.7309 48.2098 15.764 46.2414C13.7907 44.2797 12.2193 41.9515 11.1382 39.3875C10.012 36.7356 9.44287 33.9081 9.44287 31.0018C9.44287 28.0956 10.012 25.268 11.1382 22.6161C12.222 20.0489 13.778 17.742 15.764 15.7622C17.7499 13.7823 20.0567 12.2262 22.6239 11.1424C25.2815 10.0216 28.1375 9.4471 31.0218 9.45317C33.9341 9.45317 36.7616 10.0223 39.4196 11.1424C41.9868 12.2262 44.2936 13.7823 46.2796 15.7622C47.43 16.9125 48.4351 18.1719 49.2948 19.5282C49.4704 19.8127 49.7852 19.9823 50.1183 19.9823H54.0054C54.3686 19.9823 54.5987 19.6008 54.4413 19.2799C50.1788 10.8094 41.454 4.96664 31.3427 4.84555C16.8841 4.67602 4.87158 16.5008 4.84131 30.9534C4.81103 45.418 16.545 57.1581 31.0218 57.1581C41.2663 57.1581 50.1304 51.285 54.4352 42.7237C54.4724 42.65 54.4901 42.5681 54.4867 42.4857C54.4833 42.4033 54.4589 42.3232 54.4158 42.2528C54.3728 42.1825 54.3125 42.1243 54.2406 42.0838C54.1688 42.0433 54.0878 42.0218 54.0054 42.0213Z" fill="url(#paint0_linear)"/>
<defs>
<linearGradient id="paint0_linear" x1="4.84125" y1="28.7982" x2="57.1546" y2="29.3488" gradientUnits="userSpaceOnUse">
<stop stop-color="#00F1B4"/>
<stop offset="1" stop-color="#D53CF5"/>
</linearGradient>
</defs>
</svg>
