<?xml version="1.0" encoding="utf-8"?>
<!-- Generator: Adobe Illustrator 16.0.0, SVG Export Plug-In . SVG Version: 6.00 Build 0)  -->
<!DOCTYPE svg PUBLIC "-//W3C//DTD SVG 1.1//EN" "http://www.w3.org/Graphics/SVG/1.1/DTD/svg11.dtd">
<svg version="1.1" xmlns="http://www.w3.org/2000/svg" xmlns:xlink="http://www.w3.org/1999/xlink" x="0px" y="0px"
	 viewBox="0 0 95 40" enable-background="new 0 0 95 40" xml:space="preserve">
<g id="Layer_1">
	<g>
		<g>
			<path fill="#FFFFFF" d="M6.154,14.756h3.719c4.249,0,6.961-2.236,6.961-6.486c0-4.054-2.405-6.262-7.213-6.262H2.491v20.381
				h3.663V14.756z M6.154,4.831h3.104c2.684,0,3.746,0.979,3.746,3.663c0,2.377-1.063,3.522-3.802,3.522H6.154V4.831z M33.694,2.007
				h-3.299v13.028c0,3.747-1.369,4.948-4.277,4.948c-2.936,0-4.446-1.23-4.446-4.948V2.007h-3.718v13.252
				c0,5.033,2.852,7.493,8.024,7.493c5.2,0,7.716-2.404,7.716-7.604V2.007z M80.085,13.302h8.695v9.087h3.662V2.007H88.78v8.415
				h-8.695V2.007h-3.663v20.381h3.663V13.302z M8.808,38.192H8.767L3.38,24.55H2.493v14.448H3.05V25.21h0.021L8.52,38.998h0.536
				l5.449-13.788h0.041v13.788h0.578V24.55h-0.908L8.808,38.192z M22.017,32.311h-0.021l-4.644-7.761h-0.619l4.953,8.276v6.172
				h0.599v-6.172l4.934-8.276H26.62L22.017,32.311z M37.268,24.55h-3.694v14.448h3.735c4.665,0,6.935-2.292,6.935-7.143v-0.268
				C44.244,26.759,41.912,24.55,37.268,24.55z M43.646,31.918c0,4.541-2.023,6.563-6.337,6.563h-3.158V25.066h3.075
				c4.314,0,6.419,1.939,6.419,6.521V31.918z M51.322,32.207c2.436-0.393,3.323-1.816,3.323-3.859c0-2.125-1.177-3.798-4.396-3.798
				h-3.84v14.448h0.558V32.29h3.756l4.19,6.708h0.641l-4.232-6.75V32.207z M50.291,31.836h-3.323v-6.77h3.261
				c2.89,0,3.839,1.383,3.839,3.281S53.222,31.836,50.291,31.836z M57.473,38.998h8.338v-0.517h-7.76v-6.626h5.965v-0.515h-5.965
				v-6.274h7.76V24.55h-8.338V38.998z M72.146,24.55l-5.49,14.448h0.558l1.898-4.995h6.605l1.898,4.995h0.599l-5.49-14.448H72.146z
				 M69.297,33.486l3.117-8.152h0.041l3.076,8.152H69.297z M91.588,24.55L86.18,38.192h-0.041L80.752,24.55h-0.889v14.448h0.558
				V25.21h0.021l5.449,13.788h0.537l5.448-13.788h0.042v13.788h0.578V24.55H91.588z"/>
		</g>
		<g>
			<path fill="none" stroke="#FFFFFF" stroke-miterlimit="10" d="M6.154,14.756h3.719c4.249,0,6.961-2.236,6.961-6.486
				c0-4.054-2.405-6.262-7.213-6.262H2.491v20.381h3.663V14.756z M6.154,4.831h3.104c2.684,0,3.746,0.979,3.746,3.663
				c0,2.377-1.063,3.522-3.802,3.522H6.154V4.831z M33.694,2.007h-3.299v13.028c0,3.747-1.369,4.948-4.277,4.948
				c-2.936,0-4.446-1.23-4.446-4.948V2.007h-3.718v13.252c0,5.033,2.852,7.493,8.024,7.493c5.2,0,7.716-2.404,7.716-7.604V2.007z
				 M80.085,13.302h8.695v9.087h3.662V2.007H88.78v8.415h-8.695V2.007h-3.663v20.381h3.663V13.302z M8.808,38.192H8.767L3.38,24.55
				H2.493v14.448H3.05V25.21h0.021L8.52,38.998h0.536l5.449-13.788h0.041v13.788h0.578V24.55h-0.908L8.808,38.192z M22.017,32.311
				h-0.021l-4.644-7.761h-0.619l4.953,8.276v6.172h0.599v-6.172l4.934-8.276H26.62L22.017,32.311z M37.268,24.55h-3.694v14.448
				h3.735c4.665,0,6.935-2.292,6.935-7.143v-0.268C44.244,26.759,41.912,24.55,37.268,24.55z M43.646,31.918
				c0,4.541-2.023,6.563-6.337,6.563h-3.158V25.066h3.075c4.314,0,6.419,1.939,6.419,6.521V31.918z M51.322,32.207
				c2.436-0.393,3.323-1.816,3.323-3.859c0-2.125-1.177-3.798-4.396-3.798h-3.84v14.448h0.558V32.29h3.756l4.19,6.708h0.641
				l-4.232-6.75V32.207z M50.291,31.836h-3.323v-6.77h3.261c2.89,0,3.839,1.383,3.839,3.281S53.222,31.836,50.291,31.836z
				 M57.473,38.998h8.338v-0.517h-7.76v-6.626h5.965v-0.515h-5.965v-6.274h7.76V24.55h-8.338V38.998z M72.146,24.55l-5.49,14.448
				h0.558l1.898-4.995h6.605l1.898,4.995h0.599l-5.49-14.448H72.146z M69.297,33.486l3.117-8.152h0.041l3.076,8.152H69.297z
				 M91.588,24.55L86.18,38.192h-0.041L80.752,24.55h-0.889v14.448h0.558V25.21h0.021l5.449,13.788h0.537l5.448-13.788h0.042v13.788
				h0.578V24.55H91.588z"/>
		</g>
	</g>
</g>
<g id="Layer_2">
	<path fill="#E98113" stroke="#E98113" stroke-miterlimit="10" d="M72.03,4.862C70.186,3.017,67.732,2,65.122,2
		c-2.609,0-5.063,1.017-6.907,2.862L48.179,14.897c-0.835,0.835-1.946,1.294-3.127,1.294s-2.292-0.459-3.127-1.294
		c-0.835-0.836-1.295-1.946-1.295-3.127s0.46-2.292,1.295-3.127c0.835-0.835,1.946-1.295,3.127-1.295
		c1.181,0,2.292,0.46,3.127,1.295l1.858,1.859l3.781-3.782L51.96,4.862C50.114,3.017,47.661,2,45.051,2
		c-2.609,0-5.063,1.017-6.908,2.862c-1.845,1.845-2.861,4.298-2.861,6.908c0,2.609,1.016,5.063,2.861,6.909
		c1.846,1.844,4.299,2.86,6.908,2.86c2.61,0,5.063-1.016,6.909-2.86L61.995,8.643c0.835-0.835,1.946-1.295,3.127-1.295
		s2.292,0.46,3.128,1.295c0.834,0.835,1.295,1.946,1.295,3.127s-0.461,2.292-1.295,3.127c-0.836,0.835-1.946,1.294-3.128,1.294
		c-1.181,0-2.292-0.459-3.126-1.294l-1.836-1.836l-3.781,3.781l1.836,1.836c1.845,1.844,4.298,2.86,6.907,2.86
		s5.063-1.016,6.908-2.86c1.845-1.846,2.861-4.3,2.861-6.909C74.892,9.161,73.875,6.707,72.03,4.862z"/>
</g>
</svg>
