<?xml version="1.0" encoding="utf-8"?>
<!-- Generator: Adobe Illustrator 16.0.0, SVG Export Plug-In . SVG Version: 6.00 Build 0)  -->
<!DOCTYPE svg PUBLIC "-//W3C//DTD SVG 1.1//EN" "http://www.w3.org/Graphics/SVG/1.1/DTD/svg11.dtd">
<svg version="1.1" id="Layer_1" xmlns="http://www.w3.org/2000/svg" xmlns:xlink="http://www.w3.org/1999/xlink" x="0px" y="0px"
	viewBox="0 0 37 37" enable-background="new 0 0 37 37" xml:space="preserve">
<g>
	<g>
		<path fill="#FFFFFF" d="M35,33.5H2c-0.828,0-1.5,0.672-1.5,1.5s0.672,1.5,1.5,1.5h33c0.828,0,1.5-0.672,1.5-1.5
			S35.828,33.5,35,33.5z M2,4.5h33c0.828,0,1.5-0.671,1.5-1.5S35.828,1.5,35,1.5H2C1.172,1.5,0.5,2.171,0.5,3S1.172,4.5,2,4.5z
			 M35,17.5H2c-0.828,0-1.5,0.672-1.5,1.5s0.672,1.5,1.5,1.5h33c0.828,0,1.5-0.672,1.5-1.5S35.828,17.5,35,17.5z"/>
	</g>
	<g>
		<path fill="none" stroke="#FFFFFF" stroke-miterlimit="10" d="M35,33.5H2c-0.828,0-1.5,0.672-1.5,1.5s0.672,1.5,1.5,1.5h33
			c0.828,0,1.5-0.672,1.5-1.5S35.828,33.5,35,33.5z M2,4.5h33c0.828,0,1.5-0.671,1.5-1.5S35.828,1.5,35,1.5H2
			C1.172,1.5,0.5,2.171,0.5,3S1.172,4.5,2,4.5z M35,17.5H2c-0.828,0-1.5,0.672-1.5,1.5s0.672,1.5,1.5,1.5h33
			c0.828,0,1.5-0.672,1.5-1.5S35.828,17.5,35,17.5z"/>
	</g>
</g>
</svg>
