<?xml version="1.0" encoding="utf-8"?>
<!-- Generator: Adobe Illustrator 16.0.0, SVG Export Plug-In . SVG Version: 6.00 Build 0)  -->
<!DOCTYPE svg PUBLIC "-//W3C//DTD SVG 1.1//EN" "http://www.w3.org/Graphics/SVG/1.1/DTD/svg11.dtd">
<svg version="1.1" id="Layer_1" xmlns="http://www.w3.org/2000/svg" xmlns:xlink="http://www.w3.org/1999/xlink" x="0px" y="0px"
	 viewBox="0 0 125 125" enable-background="new 0 0 125 125" xml:space="preserve">
<g>
	<g>
		<path fill="#FFFFFF" d="M62.5,2.5c-33.137,0-60,26.863-60,60c0,33.137,26.863,60,60,60c33.137,0,60-26.863,60-60
			C122.5,29.363,95.637,2.5,62.5,2.5z M58.5,78.5c0,1.104-0.896,2-2,2h-9c-1.104,0-2-0.896-2-2v-32c0-1.104,0.896-2,2-2h9
			c1.104,0,2,0.896,2,2V78.5z M79.5,78.5c0,1.104-0.896,2-2,2h-9c-1.104,0-2-0.896-2-2v-32c0-1.104,0.896-2,2-2h9
			c1.104,0,2,0.896,2,2V78.5z"/>
	</g>
	<g>
		<path fill="none" stroke="#FFFFFF" stroke-miterlimit="10" d="M62.5,2.5c-33.137,0-60,26.863-60,60c0,33.137,26.863,60,60,60
			c33.137,0,60-26.863,60-60C122.5,29.363,95.637,2.5,62.5,2.5z M58.5,78.5c0,1.104-0.896,2-2,2h-9c-1.104,0-2-0.896-2-2v-32
			c0-1.104,0.896-2,2-2h9c1.104,0,2,0.896,2,2V78.5z M79.5,78.5c0,1.104-0.896,2-2,2h-9c-1.104,0-2-0.896-2-2v-32
			c0-1.104,0.896-2,2-2h9c1.104,0,2,0.896,2,2V78.5z"/>
	</g>
</g>
</svg>
