<?xml version="1.0" encoding="utf-8"?>
<!-- Generator: Adobe Illustrator 16.0.0, SVG Export Plug-In . SVG Version: 6.00 Build 0)  -->
<!DOCTYPE svg PUBLIC "-//W3C//DTD SVG 1.1//EN" "http://www.w3.org/Graphics/SVG/1.1/DTD/svg11.dtd">
<svg version="1.1" id="Layer_1" xmlns="http://www.w3.org/2000/svg" xmlns:xlink="http://www.w3.org/1999/xlink" x="0px" y="0px"
	viewBox="0 0 125 125" enable-background="new 0 0 125 125" xml:space="preserve">
<g>
	<g>
		<path fill="#FFFFFF" d="M62.5,2.5c-33.137,0-60,26.863-60,60c0,33.137,26.863,60,60,60c33.137,0,60-26.863,60-60
			C122.5,29.363,95.637,2.5,62.5,2.5z M83.373,64.456c-1.603,0.979-27.771,16.68-29.667,17.771c-1.387,0.8-3.208-0.084-3.208-1.904
			v-35.53c0-1.652,1.647-2.881,3.275-1.915c1.304,0.774,27.374,16.394,29.6,17.73C84.834,61.485,84.81,63.577,83.373,64.456z"/>
	</g>
	<g>
		<path fill="none" stroke="#FFFFFF" stroke-miterlimit="10" d="M62.5,2.5c-33.137,0-60,26.863-60,60c0,33.137,26.863,60,60,60
			c33.137,0,60-26.863,60-60C122.5,29.363,95.637,2.5,62.5,2.5z M83.373,64.456c-1.603,0.979-27.771,16.68-29.667,17.771
			c-1.387,0.8-3.208-0.084-3.208-1.904v-35.53c0-1.652,1.647-2.881,3.275-1.915c1.304,0.774,27.374,16.394,29.6,17.73
			C84.834,61.485,84.81,63.577,83.373,64.456z"/>
	</g>
</g>
</svg>
