<svg width="80" height="31" viewBox="0 0 80 31" fill="none" xmlns="http://www.w3.org/2000/svg">
<rect x="1" y="1" width="78" height="29" rx="4" fill="#0A0928" stroke="white" stroke-width="2"/>
<path d="M51.3808 11.15H50.0508V15.76H51.3808V11.15ZM45.1408 13.52C45.1408 12.87 45.6508 12.48 46.3308 12.48C47.0108 12.48 47.5008 12.87 47.5008 13.52C47.5008 14.18 47.0108 14.56 46.3308 14.56C45.6508 14.56 45.1408 14.18 45.1408 13.52ZM48.7808 13.52C48.7808 12.3 47.7308 11.42 46.3308 11.42C44.9208 11.42 43.8608 12.3 43.8608 13.52C43.8608 14.75 44.9208 15.63 46.3308 15.63C47.7308 15.63 48.7808 14.75 48.7808 13.52ZM46.5608 19.23V18.65H51.3808V16.14H45.2408V17.15H50.0708V17.71H45.2508V20.25H51.6108V19.23H46.5608ZM56.31 15.45H54.5V14.14H56.31V15.45ZM57.61 11.81H56.31V13.12H54.5V11.81H53.2V16.49H57.61V11.81ZM55.56 17.26H54.24V20.2H60.51V19.15H55.56V17.26ZM60.18 13.75V11.15H58.86V17.93H60.18V14.83H61.4V13.75H60.18Z" fill="white"/>
<path d="M27.1215 21.3969C26.6794 20.3496 26.0378 19.3984 25.2325 18.5961C24.4296 17.7915 23.4785 17.15 22.4317 16.707C22.4223 16.7023 22.4129 16.7 22.4036 16.6953C23.8637 15.6406 24.8129 13.9227 24.8129 11.9844C24.8129 8.77344 22.2114 6.17188 19.0004 6.17188C15.7895 6.17188 13.1879 8.77344 13.1879 11.9844C13.1879 13.9227 14.1371 15.6406 15.5973 16.6977C15.5879 16.7023 15.5786 16.7047 15.5692 16.7094C14.5192 17.1523 13.577 17.7875 12.7684 18.5984C11.9638 19.4013 11.3223 20.3524 10.8793 21.3992C10.4441 22.424 10.2094 23.5228 10.1879 24.6359C10.1873 24.661 10.1917 24.6858 10.2008 24.7091C10.21 24.7324 10.2237 24.7537 10.2412 24.7716C10.2586 24.7895 10.2795 24.8037 10.3026 24.8134C10.3256 24.8231 10.3504 24.8281 10.3754 24.8281H11.7817C11.8848 24.8281 11.9668 24.7461 11.9692 24.6453C12.016 22.8359 12.7426 21.1414 14.027 19.857C15.3559 18.5281 17.1207 17.7969 19.0004 17.7969C20.8801 17.7969 22.645 18.5281 23.9739 19.857C25.2582 21.1414 25.9848 22.8359 26.0317 24.6453C26.034 24.7484 26.1161 24.8281 26.2192 24.8281H27.6254C27.6504 24.8281 27.6752 24.8231 27.6983 24.8134C27.7213 24.8037 27.7422 24.7895 27.7597 24.7716C27.7772 24.7537 27.7909 24.7324 27.8 24.7091C27.8092 24.6858 27.8136 24.661 27.8129 24.6359C27.7895 23.5156 27.5575 22.4258 27.1215 21.3969ZM19.0004 16.0156C17.9246 16.0156 16.9121 15.5961 16.1504 14.8344C15.3887 14.0727 14.9692 13.0602 14.9692 11.9844C14.9692 10.9086 15.3887 9.89609 16.1504 9.13437C16.9121 8.37266 17.9246 7.95312 19.0004 7.95312C20.0762 7.95312 21.0887 8.37266 21.8504 9.13437C22.6121 9.89609 23.0317 10.9086 23.0317 11.9844C23.0317 13.0602 22.6121 14.0727 21.8504 14.8344C21.0887 15.5961 20.0762 16.0156 19.0004 16.0156Z" fill="white"/>
</svg>
