<?xml version="1.0" encoding="utf-8"?>
<!-- Generator: Adobe Illustrator 16.0.0, SVG Export Plug-In . SVG Version: 6.00 Build 0)  -->
<!DOCTYPE svg PUBLIC "-//W3C//DTD SVG 1.1//EN" "http://www.w3.org/Graphics/SVG/1.1/DTD/svg11.dtd">
<svg version="1.1" xmlns="http://www.w3.org/2000/svg" xmlns:xlink="http://www.w3.org/1999/xlink" x="0px" y="0px" width="60px"
	 height="47px" viewBox="0 0 60 47" enable-background="new 0 0 60 47" xml:space="preserve">
<g id="Layer_1">
	<g>
		<g>
			<path fill="#FFFFFF" d="M23.788,0.537c-7.18,0-13,5.82-13,13s5.82,13,13,13s13-5.821,13-13S30.968,0.537,23.788,0.537z
				 M23.788,23.537c-5.522,0-10-4.478-10-10s4.478-10,10-10s10,4.478,10,10S29.311,23.537,23.788,23.537z"/>
		</g>
		<g>
			<path fill="none" stroke="#FFFFFF" stroke-miterlimit="10" d="M23.788,0.537c-7.18,0-13,5.82-13,13s5.82,13,13,13s13-5.821,13-13
				S30.968,0.537,23.788,0.537z M23.788,23.537c-5.522,0-10-4.478-10-10s4.478-10,10-10s10,4.478,10,10S29.311,23.537,23.788,23.537
				z"/>
		</g>
	</g>
</g>
<g id="Layer_2">
	<path fill-rule="evenodd" clip-rule="evenodd" fill="#FFFFFF" stroke="#FFFFFF" stroke-miterlimit="10" d="M43.788,46.499
		c0-10.887-9.112-20-20-20s-20,9.113-20,20h-3c0-12.701,10.297-23,23-23c12.702,0,23,10.298,23,23H43.788z"/>
</g>
<g id="Layer_3">
	<g>
		<g>
			<path fill-rule="evenodd" clip-rule="evenodd" fill="#FFFFFF" d="M42.822,15.627h15c0.828,0,1.5-0.672,1.5-1.5
				s-0.672-1.5-1.5-1.5h-15c-0.828,0-1.5,0.672-1.5,1.5S41.994,15.627,42.822,15.627z M57.822,22.627h-15
				c-0.828,0-1.5,0.672-1.5,1.5s0.672,1.5,1.5,1.5h15c0.828,0,1.5-0.672,1.5-1.5S58.65,22.627,57.822,22.627z M57.822,32.627h-9
				c-0.828,0-1.5,0.672-1.5,1.5s0.672,1.5,1.5,1.5h9c0.828,0,1.5-0.672,1.5-1.5S58.65,32.627,57.822,32.627z"/>
		</g>
		<g>
			<path fill="none" stroke="#FFFFFF" stroke-miterlimit="10" d="M42.822,15.627h15c0.828,0,1.5-0.672,1.5-1.5s-0.672-1.5-1.5-1.5
				h-15c-0.828,0-1.5,0.672-1.5,1.5S41.994,15.627,42.822,15.627z M57.822,22.627h-15c-0.828,0-1.5,0.672-1.5,1.5s0.672,1.5,1.5,1.5
				h15c0.828,0,1.5-0.672,1.5-1.5S58.65,22.627,57.822,22.627z M57.822,32.627h-9c-0.828,0-1.5,0.672-1.5,1.5s0.672,1.5,1.5,1.5h9
				c0.828,0,1.5-0.672,1.5-1.5S58.65,32.627,57.822,32.627z"/>
		</g>
	</g>
</g>
</svg>
