<?xml version="1.0" encoding="utf-8"?>
<!-- Generator: Adobe Illustrator 16.0.0, SVG Export Plug-In . SVG Version: 6.00 Build 0)  -->
<!DOCTYPE svg PUBLIC "-//W3C//DTD SVG 1.1//EN" "http://www.w3.org/Graphics/SVG/1.1/DTD/svg11.dtd">
<svg version="1.1" id="Layer_1" xmlns="http://www.w3.org/2000/svg" xmlns:xlink="http://www.w3.org/1999/xlink" x="0px" y="0px"
	viewBox="0 0 50 13" enable-background="new 0 0 50 13" xml:space="preserve">
<g>
	<g>
		<path fill="#E98613" d="M4.097,0.784H0.157v11.204h2.024V7.793h2.055c2.348,0,3.847-1.229,3.847-3.566
			C8.083,1.999,6.754,0.784,4.097,0.784z M3.865,6.287H2.182V2.336h1.715c1.482,0,2.07,0.539,2.07,2.014
			C5.967,5.657,5.379,6.287,3.865,6.287z M15.576,7.947c0,2.059-0.757,2.721-2.363,2.721c-1.622,0-2.457-0.678-2.457-2.721V0.784
			H8.702v7.285c0,2.768,1.575,4.12,4.434,4.12c2.873,0,4.264-1.322,4.264-4.182V0.784h-1.823V7.947z M47.839,0.784v4.626h-4.806
			V0.784H41.01v11.204h2.023V6.994h4.806v4.994h2.023V0.784H47.839z M34.802,0.97c-1.442,0-2.798,0.559-3.817,1.573l-5.546,5.517
			c-0.461,0.459-1.075,0.713-1.728,0.713c-0.653,0-1.267-0.254-1.729-0.713c-0.461-0.459-0.715-1.07-0.715-1.719
			s0.254-1.26,0.715-1.719c0.462-0.459,1.076-0.712,1.729-0.712s1.266,0.253,1.728,0.712l1.027,1.022l2.089-2.079l-1.026-1.021
			c-1.02-1.015-2.376-1.574-3.817-1.574c-1.442,0-2.798,0.559-3.817,1.573c-1.02,1.014-1.581,2.363-1.581,3.798
			c0,1.435,0.562,2.784,1.581,3.797c1.02,1.016,2.375,1.574,3.817,1.574c1.441,0,2.798-0.559,3.817-1.574l5.545-5.517
			c0.462-0.459,1.075-0.712,1.729-0.712c0.652,0,1.266,0.253,1.728,0.713c0.462,0.459,0.716,1.069,0.716,1.719
			s-0.254,1.26-0.716,1.719c-0.461,0.459-1.075,0.713-1.728,0.713c-0.653,0-1.267-0.254-1.729-0.713l-1.014-1.01l-2.09,2.08
			l1.015,1.008c1.02,1.016,2.375,1.574,3.817,1.574c1.441,0,2.797-0.559,3.816-1.574C39.639,9.125,40.2,7.776,40.2,6.341
			c0-1.435-0.562-2.784-1.582-3.797C37.6,1.529,36.244,0.97,34.802,0.97z"/>
	</g>
	<g>
		<path fill="none" stroke="#E98613" stroke-miterlimit="10" d="M4.097,0.784H0.157v11.204h2.024V7.793h2.055
			c2.348,0,3.847-1.229,3.847-3.566C8.083,1.999,6.754,0.784,4.097,0.784z M3.865,6.287H2.182V2.336h1.715
			c1.482,0,2.07,0.539,2.07,2.014C5.967,5.657,5.379,6.287,3.865,6.287z M15.576,7.947c0,2.059-0.757,2.721-2.363,2.721
			c-1.622,0-2.457-0.678-2.457-2.721V0.784H8.702v7.285c0,2.768,1.575,4.12,4.434,4.12c2.873,0,4.264-1.322,4.264-4.182V0.784
			h-1.823V7.947z M47.839,0.784v4.626h-4.806V0.784H41.01v11.204h2.023V6.994h4.806v4.994h2.023V0.784H47.839z M34.802,0.97
			c-1.442,0-2.798,0.559-3.817,1.573l-5.546,5.517c-0.461,0.459-1.075,0.713-1.728,0.713c-0.653,0-1.267-0.254-1.729-0.713
			c-0.461-0.459-0.715-1.07-0.715-1.719s0.254-1.26,0.715-1.719c0.462-0.459,1.076-0.712,1.729-0.712s1.266,0.253,1.728,0.712
			l1.027,1.022l2.089-2.079l-1.026-1.021c-1.02-1.015-2.376-1.574-3.817-1.574c-1.442,0-2.798,0.559-3.817,1.573
			c-1.02,1.014-1.581,2.363-1.581,3.798c0,1.435,0.562,2.784,1.581,3.797c1.02,1.016,2.375,1.574,3.817,1.574
			c1.441,0,2.798-0.559,3.817-1.574l5.545-5.517c0.462-0.459,1.075-0.712,1.729-0.712c0.652,0,1.266,0.253,1.728,0.713
			c0.462,0.459,0.716,1.069,0.716,1.719s-0.254,1.26-0.716,1.719c-0.461,0.459-1.075,0.713-1.728,0.713
			c-0.653,0-1.267-0.254-1.729-0.713l-1.014-1.01l-2.09,2.08l1.015,1.008c1.02,1.016,2.375,1.574,3.817,1.574
			c1.441,0,2.797-0.559,3.816-1.574C39.639,9.125,40.2,7.776,40.2,6.341c0-1.435-0.562-2.784-1.582-3.797
			C37.6,1.529,36.244,0.97,34.802,0.97z"/>
	</g>
</g>
</svg>
