<?xml version="1.0" encoding="utf-8"?>
<!-- Generator: Adobe Illustrator 16.0.0, SVG Export Plug-In . SVG Version: 6.00 Build 0)  -->
<!DOCTYPE svg PUBLIC "-//W3C//DTD SVG 1.1//EN" "http://www.w3.org/Graphics/SVG/1.1/DTD/svg11.dtd">
<svg version="1.1" id="Layer_1" xmlns="http://www.w3.org/2000/svg" xmlns:xlink="http://www.w3.org/1999/xlink" x="0px" y="0px"
	 viewBox="0 0 30 30" enable-background="new 0 0 30 30" xml:space="preserve">
<g>
	<g>
		<path fill-rule="evenodd" clip-rule="evenodd" fill="#E84340" d="M15.005,0.728c-0.792,0-1.433,0.642-1.433,1.433v7.638
			c0,0.791,0.641,1.433,1.433,1.433c0.791,0,1.433-0.642,1.433-1.433V2.16C16.438,1.369,15.795,0.728,15.005,0.728z M15.005,18.869
			c-0.792,0-1.433,0.642-1.433,1.434v7.638c0,0.791,0.641,1.433,1.433,1.433c0.791,0,1.433-0.642,1.433-1.433v-7.638
			C16.438,19.511,15.795,18.869,15.005,18.869z M9.752,13.618H2.113c-0.791,0-1.432,0.642-1.432,1.433s0.641,1.432,1.432,1.432
			h7.639c0.792,0,1.433-0.641,1.433-1.432S10.544,13.618,9.752,13.618z M27.895,13.618h-7.639c-0.79,0-1.433,0.642-1.433,1.433
			s0.643,1.432,1.433,1.432h7.639c0.791,0,1.433-0.641,1.433-1.432S28.686,13.618,27.895,13.618z"/>
	</g>
	<g>
		<path fill="none" stroke="#E84340" stroke-miterlimit="10" d="M15.005,0.728c-0.792,0-1.433,0.642-1.433,1.433v7.638
			c0,0.791,0.641,1.433,1.433,1.433c0.791,0,1.433-0.642,1.433-1.433V2.16C16.438,1.369,15.795,0.728,15.005,0.728z M15.005,18.869
			c-0.792,0-1.433,0.642-1.433,1.434v7.638c0,0.791,0.641,1.433,1.433,1.433c0.791,0,1.433-0.642,1.433-1.433v-7.638
			C16.438,19.511,15.795,18.869,15.005,18.869z M9.752,13.618H2.113c-0.791,0-1.432,0.642-1.432,1.433s0.641,1.432,1.432,1.432
			h7.639c0.792,0,1.433-0.641,1.433-1.432S10.544,13.618,9.752,13.618z M27.895,13.618h-7.639c-0.79,0-1.433,0.642-1.433,1.433
			s0.643,1.432,1.433,1.432h7.639c0.791,0,1.433-0.641,1.433-1.432S28.686,13.618,27.895,13.618z"/>
	</g>
</g>
</svg>
