<?xml version="1.0" encoding="utf-8"?>
<!-- Generator: Adobe Illustrator 16.0.0, SVG Export Plug-In . SVG Version: 6.00 Build 0)  -->
<!DOCTYPE svg PUBLIC "-//W3C//DTD SVG 1.1//EN" "http://www.w3.org/Graphics/SVG/1.1/DTD/svg11.dtd">
<svg version="1.1" id="Layer_1" xmlns="http://www.w3.org/2000/svg" xmlns:xlink="http://www.w3.org/1999/xlink" x="0px" y="0px"
	 viewBox="0 0 15 15" enable-background="new 0 0 15 15" xml:space="preserve">
<g>
	<g>
		<path fill-rule="evenodd" clip-rule="evenodd" fill="#E98113" d="M2.27,0.869c-0.362-0.363-0.95-0.363-1.313,0
			c-0.362,0.363-0.362,0.952,0,1.315l3.5,3.507c0.362,0.364,0.95,0.364,1.312,0c0.363-0.362,0.363-0.952,0-1.315L2.27,0.869z
			 M10.581,9.2c-0.363-0.363-0.951-0.363-1.313,0s-0.362,0.952,0,1.314l3.5,3.509c0.362,0.362,0.95,0.362,1.313,0
			c0.361-0.364,0.361-0.953,0-1.316L10.581,9.2z M4.457,9.2l-3.5,3.507c-0.362,0.363-0.362,0.952,0,1.316
			c0.363,0.362,0.951,0.362,1.313,0l3.499-3.509c0.363-0.362,0.363-0.951,0-1.314C5.407,8.837,4.819,8.837,4.457,9.2z M10.581,5.692
			l3.499-3.507c0.361-0.364,0.361-0.952,0-1.315c-0.362-0.363-0.95-0.363-1.313,0l-3.5,3.508c-0.362,0.363-0.362,0.953,0,1.315
			C9.63,6.056,10.218,6.056,10.581,5.692z"/>
	</g>
	<g>
		<path fill="none" stroke="#E98113" stroke-miterlimit="10" d="M2.27,0.869c-0.362-0.363-0.95-0.363-1.313,0
			c-0.362,0.363-0.362,0.952,0,1.315l3.5,3.507c0.362,0.364,0.95,0.364,1.312,0c0.363-0.362,0.363-0.952,0-1.315L2.27,0.869z
			 M10.581,9.2c-0.363-0.363-0.951-0.363-1.313,0s-0.362,0.952,0,1.314l3.5,3.509c0.362,0.362,0.95,0.362,1.313,0
			c0.361-0.364,0.361-0.953,0-1.316L10.581,9.2z M4.457,9.2l-3.5,3.507c-0.362,0.363-0.362,0.952,0,1.316
			c0.363,0.362,0.951,0.362,1.313,0l3.499-3.509c0.363-0.362,0.363-0.951,0-1.314C5.407,8.837,4.819,8.837,4.457,9.2z M10.581,5.692
			l3.499-3.507c0.361-0.364,0.361-0.952,0-1.315c-0.362-0.363-0.95-0.363-1.313,0l-3.5,3.508c-0.362,0.363-0.362,0.953,0,1.315
			C9.63,6.056,10.218,6.056,10.581,5.692z"/>
	</g>
</g>
</svg>
