<svg width="1876" height="1876" viewBox="0 0 1876 1876" fill="none" xmlns="http://www.w3.org/2000/svg">
<path d="M1800.5 0.5H75.5C34.0156 0.5 0.5 34.0156 0.5 75.5V1800.5C0.5 1841.98 34.0156 1875.5 75.5 1875.5H1800.5C1841.98 1875.5 1875.5 1841.98 1875.5 1800.5V75.5C1875.5 34.0156 1841.98 0.5 1800.5 0.5ZM1322.61 1279.95C1332.92 1292.14 1324.25 1310.66 1308.31 1310.66H1170.27C1159.25 1310.66 1148.7 1305.73 1141.44 1297.3L938 1054.72L734.562 1297.3C727.531 1305.73 716.984 1310.66 705.734 1310.66H567.688C551.75 1310.66 543.078 1292.14 553.391 1279.95L840.031 938L553.391 596.047C551.081 593.33 549.599 590.008 549.12 586.474C548.642 582.94 549.188 579.344 550.694 576.111C552.199 572.878 554.6 570.145 557.613 568.237C560.625 566.328 564.122 565.324 567.688 565.344H705.734C716.75 565.344 727.297 570.266 734.562 578.703L938 821.281L1141.44 578.703C1148.47 570.266 1159.02 565.344 1170.27 565.344H1308.31C1324.25 565.344 1332.92 583.859 1322.61 596.047L1035.97 938L1322.61 1279.95Z" fill="#EB5757"/>
</svg>
