<?xml version="1.0" encoding="utf-8"?>
<!-- Generator: Adobe Illustrator 16.0.0, SVG Export Plug-In . SVG Version: 6.00 Build 0)  -->
<!DOCTYPE svg PUBLIC "-//W3C//DTD SVG 1.1//EN" "http://www.w3.org/Graphics/SVG/1.1/DTD/svg11.dtd">
<svg version="1.1" id="Layer_1" xmlns="http://www.w3.org/2000/svg" xmlns:xlink="http://www.w3.org/1999/xlink" x="0px" y="0px"
	viewBox="0 0 530 263" enable-background="new 0 0 530 263" xml:space="preserve">
<path fill="#E98517" stroke="#E98517" stroke-miterlimit="10" d="M489.497,40.081C465.001,15.523,432.422,1.999,397.76,1.999
	c-34.654,0-67.229,13.524-91.734,38.077l-133.27,133.532c-11.093,11.111-25.844,17.231-41.527,17.231
	c-15.688,0-30.434-6.12-41.523-17.231c-11.093-11.116-17.201-25.89-17.201-41.61c0-15.715,6.108-30.495,17.197-41.609
	c11.098-11.116,25.847-17.236,41.527-17.236s30.43,6.12,41.527,17.236l24.679,24.729l50.21-50.313l-24.676-24.724
	c-24.504-24.557-57.086-38.082-91.74-38.082S63.993,15.523,39.487,40.076c-24.5,24.553-37.996,57.196-37.996,91.922
	c0,34.723,13.496,67.366,37.996,91.922c24.509,24.554,57.092,38.076,91.741,38.076c34.654,0,67.236-13.522,91.74-38.076
	L356.232,90.388c11.099-11.116,25.848-17.236,41.527-17.236s30.43,6.12,41.528,17.241c11.088,11.109,17.202,25.889,17.202,41.604
	c0,15.717-6.114,30.494-17.202,41.61c-11.089,11.111-25.838,17.231-41.528,17.231c-15.68,0-30.429-6.12-41.519-17.231l-24.38-24.423
	l-50.213,50.312l24.377,24.424c24.505,24.554,57.08,38.076,91.734,38.076c34.653,0,67.231-13.522,91.737-38.076
	c24.504-24.557,38.001-57.199,38.001-91.922C527.498,97.275,514.001,64.633,489.497,40.081z"/>
</svg>
