<svg width="16" height="16" viewBox="0 0 16 16" fill="none" xmlns="http://www.w3.org/2000/svg">
<path d="M2.15781 8.3396C1.89531 7.99272 1.75 7.56772 1.75 7.12554C1.75 6.42397 2.14219 5.75991 2.77344 5.3896C2.93595 5.29428 3.12097 5.24411 3.30937 5.24429H7.05625L6.9625 3.32397C6.94062 2.85991 7.10469 2.41929 7.42344 2.08335C7.57987 1.91777 7.76859 1.78603 7.97794 1.69626C8.1873 1.6065 8.41284 1.56063 8.64062 1.56147C9.45312 1.56147 10.1719 2.10835 10.3875 2.89116L11.7297 7.75054H13.75C14.0266 7.75054 14.25 7.97397 14.25 8.25054V13.938C14.25 14.2146 14.0266 14.438 13.75 14.438H4.35469C4.21094 14.438 4.07031 14.4099 3.94063 14.3537C3.19688 14.0365 2.71719 13.3099 2.71719 12.5037C2.71719 12.3068 2.74531 12.113 2.80156 11.9255C2.53906 11.5787 2.39375 11.1537 2.39375 10.7115C2.39375 10.5146 2.42187 10.3208 2.47812 10.1333C2.21562 9.78647 2.07031 9.36147 2.07031 8.91929C2.07344 8.72241 2.10156 8.5271 2.15781 8.3396V8.3396ZM13.125 13.313V8.87554H11.8594V13.313H13.125ZM3.18125 7.79741L3.52344 8.09429L3.30625 8.49116C3.2347 8.6219 3.19759 8.76869 3.19844 8.91773C3.19844 9.17554 3.31094 9.42085 3.50469 9.5896L3.84688 9.88647L3.62969 10.2833C3.55813 10.4141 3.52103 10.5609 3.52188 10.7099C3.52188 10.9677 3.63438 11.213 3.82812 11.3818L4.17031 11.6787L3.95312 12.0755C3.88157 12.2063 3.84447 12.3531 3.84531 12.5021C3.84531 12.8521 4.05156 13.1677 4.37031 13.3115H10.8594V8.82554L9.30469 3.19272C9.2646 3.04835 9.17854 2.92098 9.05956 2.82991C8.94057 2.73884 8.79515 2.68903 8.64531 2.68804C8.52656 2.68804 8.40938 2.72241 8.31563 2.79272C8.16094 2.90835 8.07813 3.08335 8.0875 3.26929L8.2375 6.36929H3.325C3.04687 6.5396 2.875 6.8271 2.875 7.12554C2.875 7.38335 2.9875 7.6271 3.18125 7.79741Z" fill="#F2F2F2"/>
</svg>

