<?xml version="1.0" encoding="utf-8"?>
<!-- Generator: Adobe Illustrator 22.0.1, SVG Export Plug-In . SVG Version: 6.00 Build 0)  -->
<svg version="1.1" id="레이어_1" xmlns="http://www.w3.org/2000/svg" xmlns:xlink="http://www.w3.org/1999/xlink" x="0px"
	 y="0px" viewBox="0 0 90.8 37.4" style="enable-background:new 0 0 90.8 37.4;" xml:space="preserve">
<style type="text/css">
	.st0{fill:#221714;}
	.st1{fill:#F39800;}
</style>
<g>
	<g>
		<path class="st0" d="M4,12.9h3.7c4.2,0,7-2.2,7-6.5c0-4.1-2.4-6.3-7.2-6.3H0.4v20.4H4V12.9z M4,3h3.1c2.7,0,3.7,1,3.7,3.7
			c0,2.4-1.1,3.5-3.8,3.5H4V3z M31.6,0.1h-3.3v13c0,3.7-1.4,4.9-4.3,4.9c-2.9,0-4.4-1.2-4.4-4.9v-13h-3.7v13.3c0,5,2.9,7.5,8,7.5
			c5.2,0,7.7-2.4,7.7-7.6V0.1z M78,11.4h8.7v9.1h3.7V0.1h-3.7v8.4H78V0.1h-3.7v20.4H78V11.4z M6.7,36.3L6.7,36.3L1.3,22.7H0.4v14.4
			h0.6V23.3h0l5.4,13.8h0.5l5.4-13.8h0v13.8H13V22.7h-0.9L6.7,36.3z M19.9,30.4L19.9,30.4l-4.7-7.8h-0.6l5,8.3v6.2h0.6v-6.2l4.9-8.3
			h-0.6L19.9,30.4z M35.2,22.7h-3.7v14.4h3.7c4.7,0,6.9-2.3,6.9-7.1v-0.3C42.1,24.9,39.8,22.7,35.2,22.7z M41.5,30
			c0,4.5-2,6.6-6.3,6.6H32V23.2h3.1c4.3,0,6.4,1.9,6.4,6.5V30z M49.2,30.3c2.4-0.4,3.3-1.8,3.3-3.9c0-2.1-1.2-3.8-4.4-3.8h-3.8v14.4
			h0.6v-6.7h3.8l4.2,6.7h0.6L49.2,30.3L49.2,30.3z M48.2,30h-3.3v-6.8h3.3c2.9,0,3.8,1.4,3.8,3.3C52,28.4,51.1,30,48.2,30z
			 M55.4,37.1h8.3v-0.5h-7.8V30h6v-0.5h-6v-6.3h7.8v-0.5h-8.3V37.1z M70,22.7l-5.5,14.4h0.6l1.9-5h6.6l1.9,5h0.6l-5.5-14.4H70z
			 M67.2,31.6l3.1-8.2h0l3.1,8.2H67.2z M89.5,22.7l-5.4,13.6h0l-5.4-13.6h-0.9v14.4h0.6V23.3h0l5.4,13.8h0.5l5.4-13.8h0v13.8h0.6
			V22.7H89.5z"/>
	</g>
</g>
<path class="st1" d="M70,3.3c-1.8-1.8-4.3-2.9-6.9-2.9c-2.6,0-5.1,1-6.9,2.9l-10,10c-0.8,0.8-1.9,1.3-3.1,1.3
	c-1.2,0-2.3-0.5-3.1-1.3c-0.8-0.8-1.3-1.9-1.3-3.1c0-1.2,0.5-2.3,1.3-3.1c0.8-0.8,1.9-1.3,3.1-1.3c1.2,0,2.3,0.5,3.1,1.3L48,9
	l3.8-3.8l-1.9-1.9c-1.8-1.8-4.3-2.9-6.9-2.9c-2.6,0-5.1,1-6.9,2.9c-1.8,1.8-2.9,4.3-2.9,6.9c0,2.6,1,5.1,2.9,6.9
	C37.9,19,40.4,20,43,20c2.6,0,5.1-1,6.9-2.9l10-10c0.8-0.8,1.9-1.3,3.1-1.3c1.2,0,2.3,0.5,3.1,1.3c0.8,0.8,1.3,1.9,1.3,3.1
	c0,1.2-0.5,2.3-1.3,3.1c-0.8,0.8-1.9,1.3-3.1,1.3c-1.2,0-2.3-0.5-3.1-1.3l-1.8-1.8l-3.8,3.8l1.8,1.8C58,19,60.5,20,63.1,20
	c2.6,0,5.1-1,6.9-2.9c1.8-1.8,2.9-4.3,2.9-6.9C72.8,7.6,71.8,5.2,70,3.3z"/>
</svg>
