<?xml version="1.0" encoding="utf-8"?>
<!-- Generator: Adobe Illustrator 16.0.0, SVG Export Plug-In . SVG Version: 6.00 Build 0)  -->
<!DOCTYPE svg PUBLIC "-//W3C//DTD SVG 1.1//EN" "http://www.w3.org/Graphics/SVG/1.1/DTD/svg11.dtd">
<svg version="1.1" xmlns="http://www.w3.org/2000/svg" xmlns:xlink="http://www.w3.org/1999/xlink" x="0px" y="0px"
	viewBox="0 0 63 45" enable-background="new 0 0 63 45" xml:space="preserve">
<g id="Layer_1">
	<path fill="#FFFFFF" stroke="#FFFFFF" stroke-miterlimit="10" d="M11,2h40c5.522,0,10,4.477,10,10v21.625c0,5.522-4.478,10-10,10
		H11c-5.522,0-10-4.478-10-10V12C1,6.477,5.478,2,11,2z"/>
</g>
<g id="Layer_2">
	<path fill="#E98113" stroke="#E98113" stroke-miterlimit="10" d="M24.714,28.473c0-0.679,0-12.585,0-13.054
		c0-0.607,0.593-1.059,1.179-0.703c0.469,0.284,9.849,6.022,10.649,6.514c0.525,0.322,0.517,1.091,0,1.414
		c-0.576,0.36-9.992,6.128-10.674,6.528C25.369,29.465,24.714,29.141,24.714,28.473z"/>
</g>
</svg>
